<svg width="124" height="124" viewBox="0 0 124 124" fill="none" xmlns="http://www.w3.org/2000/svg">
<path d="M103.109 45.8671L85.9794 86.9502H74.0364L91.3706 47.1636H70.1466V37.2H103.109V45.8671Z" fill="black"/>
<path d="M38.7803 38.6384C43.8303 38.6384 48.2434 39.6394 52.0197 41.6412C55.7958 43.6431 58.7076 46.4638 60.755 50.1035C62.8479 53.6977 63.8942 57.8607 63.8942 62.5923C63.8942 67.2782 62.8479 71.4411 60.755 75.081C58.7076 78.7207 55.7732 81.5415 51.9515 83.5433C48.1752 85.5452 43.7849 86.5461 38.7803 86.5461H20.832V38.6384H38.7803ZM38.0296 76.4458C42.4427 76.4458 45.8778 75.2403 48.3345 72.829C50.7914 70.4177 52.0197 67.0054 52.0197 62.5923C52.0197 58.1791 50.7914 54.744 48.3345 52.2874C45.8778 49.8304 42.4427 48.6021 38.0296 48.6021H32.5019V76.4458H38.0296Z" fill="black"/>
<path d="M69.0965 74.9968V86.5459H57.5474L69.0965 74.9968Z" fill="black"/>
</svg>
