<svg width="549" height="139" viewBox="0 0 549 139" fill="none" xmlns="http://www.w3.org/2000/svg">
<path d="M36.0875 30.04C44.9675 30.04 52.7275 31.84 59.3675 35.44C66.0875 39.04 71.2475 44.04 74.8475 50.44C78.4475 56.84 80.2475 64.12 80.2475 72.28C80.2475 80.36 78.4475 87.64 74.8475 94.12C71.2475 100.6 66.0875 105.72 59.3675 109.48C52.7275 113.16 44.9675 115 36.0875 115H0.6875V30.04H36.0875ZM33.6875 91.24C39.6875 91.24 44.4475 89.6 47.9675 86.32C51.4875 83.04 53.2475 78.36 53.2475 72.28C53.2475 66.2 51.4875 61.52 47.9675 58.24C44.4475 54.96 39.6875 53.32 33.6875 53.32H27.3275V91.24H33.6875ZM136.907 0.399995L105.107 138.76H79.5472L111.467 0.399995H136.907ZM184.837 0.399995L153.037 138.76H127.477L159.397 0.399995H184.837ZM254.727 115H243.807L199.887 48.4V115H188.967V31.24H199.887L243.807 97.72V31.24H254.727V115ZM311.262 115.84C303.502 115.84 296.422 114.04 290.022 110.44C283.622 106.76 278.542 101.68 274.782 95.2C271.102 88.64 269.262 81.28 269.262 73.12C269.262 64.96 271.102 57.64 274.782 51.16C278.542 44.6 283.622 39.52 290.022 35.92C296.422 32.24 303.502 30.4 311.262 30.4C319.102 30.4 326.222 32.24 332.622 35.92C339.022 39.52 344.062 44.56 347.742 51.04C351.422 57.52 353.262 64.88 353.262 73.12C353.262 81.36 351.422 88.72 347.742 95.2C344.062 101.68 339.022 106.76 332.622 110.44C326.222 114.04 319.102 115.84 311.262 115.84ZM311.262 106.36C317.102 106.36 322.342 105 326.982 102.28C331.702 99.56 335.382 95.68 338.022 90.64C340.742 85.6 342.102 79.76 342.102 73.12C342.102 66.4 340.742 60.56 338.022 55.6C335.382 50.56 331.742 46.68 327.102 43.96C322.462 41.24 317.182 39.88 311.262 39.88C305.342 39.88 300.062 41.24 295.422 43.96C290.782 46.68 287.102 50.56 284.382 55.6C281.742 60.56 280.422 66.4 280.422 73.12C280.422 79.76 281.742 85.6 284.382 90.64C287.102 95.68 290.782 99.56 295.422 102.28C300.142 105 305.422 106.36 311.262 106.36ZM419.158 31.36V40.24H396.358V115H385.438V40.24H362.518V31.36H419.158ZM443.519 40.24V68.2H473.999V77.2H443.519V106H477.599V115H432.599V31.24H477.599V40.24H443.519ZM520.643 115.84C515.123 115.84 510.163 114.88 505.763 112.96C501.443 110.96 498.043 108.24 495.563 104.8C493.083 101.28 491.803 97.24 491.723 92.68H503.363C503.763 96.6 505.363 99.92 508.163 102.64C511.043 105.28 515.203 106.6 520.643 106.6C525.843 106.6 529.923 105.32 532.883 102.76C535.923 100.12 537.443 96.76 537.443 92.68C537.443 89.48 536.563 86.88 534.803 84.88C533.043 82.88 530.843 81.36 528.203 80.32C525.563 79.28 522.003 78.16 517.523 76.96C512.003 75.52 507.563 74.08 504.203 72.64C500.923 71.2 498.083 68.96 495.683 65.92C493.363 62.8 492.203 58.64 492.203 53.44C492.203 48.88 493.363 44.84 495.683 41.32C498.003 37.8 501.243 35.08 505.403 33.16C509.643 31.24 514.483 30.28 519.923 30.28C527.763 30.28 534.163 32.24 539.123 36.16C544.163 40.08 547.003 45.28 547.643 51.76H535.643C535.243 48.56 533.563 45.76 530.603 43.36C527.643 40.88 523.723 39.64 518.843 39.64C514.283 39.64 510.563 40.84 507.683 43.24C504.803 45.56 503.363 48.84 503.363 53.08C503.363 56.12 504.203 58.6 505.883 60.52C507.643 62.44 509.763 63.92 512.243 64.96C514.803 65.92 518.363 67.04 522.923 68.32C528.443 69.84 532.883 71.36 536.243 72.88C539.603 74.32 542.483 76.6 544.883 79.72C547.283 82.76 548.483 86.92 548.483 92.2C548.483 96.28 547.403 100.12 545.243 103.72C543.083 107.32 539.883 110.24 535.643 112.48C531.403 114.72 526.403 115.84 520.643 115.84Z" fill="black"/>
</svg>
