<svg width="309" height="60" viewBox="0 0 309 60" fill="none" xmlns="http://www.w3.org/2000/svg">
<rect width="309" height="60" rx="5" fill="#00D95F"/>
<path d="M113.156 27.36C113.156 28.1067 112.976 28.8067 112.616 29.46C112.269 30.1133 111.716 30.64 110.956 31.04C110.209 31.44 109.262 31.64 108.116 31.64H105.776V37H102.976V23.04H108.116C109.196 23.04 110.116 23.2267 110.876 23.6C111.636 23.9733 112.202 24.4867 112.576 25.14C112.962 25.7933 113.156 26.5333 113.156 27.36ZM107.996 29.38C108.769 29.38 109.342 29.2067 109.716 28.86C110.089 28.5 110.276 28 110.276 27.36C110.276 26 109.516 25.32 107.996 25.32H105.776V29.38H107.996ZM117.944 34.78H122.544V37H115.144V23.04H117.944V34.78ZM132.883 34.34H127.323L126.403 37H123.463L128.483 23.02H131.743L136.763 37H133.803L132.883 34.34ZM132.123 32.1L130.103 26.26L128.083 32.1H132.123ZM149.74 23.04L145.02 32.14V37H142.22V32.14L137.48 23.04H140.64L143.64 29.42L146.62 23.04H149.74ZM162.6 37.14C161.294 37.14 160.094 36.8333 159 36.22C157.907 35.6067 157.04 34.76 156.4 33.68C155.76 32.5867 155.44 31.3533 155.44 29.98C155.44 28.62 155.76 27.4 156.4 26.32C157.04 25.2267 157.907 24.3733 159 23.76C160.094 23.1467 161.294 22.84 162.6 22.84C163.92 22.84 165.12 23.1467 166.2 23.76C167.294 24.3733 168.154 25.2267 168.78 26.32C169.42 27.4 169.74 28.62 169.74 29.98C169.74 31.3533 169.42 32.5867 168.78 33.68C168.154 34.76 167.294 35.6067 166.2 36.22C165.107 36.8333 163.907 37.14 162.6 37.14ZM162.6 34.64C163.44 34.64 164.18 34.4533 164.82 34.08C165.46 33.6933 165.96 33.1467 166.32 32.44C166.68 31.7333 166.86 30.9133 166.86 29.98C166.86 29.0467 166.68 28.2333 166.32 27.54C165.96 26.8333 165.46 26.2933 164.82 25.92C164.18 25.5467 163.44 25.36 162.6 25.36C161.76 25.36 161.014 25.5467 160.36 25.92C159.72 26.2933 159.22 26.8333 158.86 27.54C158.5 28.2333 158.32 29.0467 158.32 29.98C158.32 30.9133 158.5 31.7333 158.86 32.44C159.22 33.1467 159.72 33.6933 160.36 34.08C161.014 34.4533 161.76 34.64 162.6 34.64ZM183.763 37H180.963L174.623 27.42V37H171.823V23.02H174.623L180.963 32.62V23.02H183.763V37ZM196.116 37.14C195.143 37.14 194.263 36.9733 193.476 36.64C192.703 36.3067 192.089 35.8267 191.636 35.2C191.183 34.5733 190.949 33.8333 190.936 32.98H193.936C193.976 33.5533 194.176 34.0067 194.536 34.34C194.909 34.6733 195.416 34.84 196.056 34.84C196.709 34.84 197.223 34.6867 197.596 34.38C197.969 34.06 198.156 33.6467 198.156 33.14C198.156 32.7267 198.029 32.3867 197.776 32.12C197.523 31.8533 197.203 31.6467 196.816 31.5C196.443 31.34 195.923 31.1667 195.256 30.98C194.349 30.7133 193.609 30.4533 193.036 30.2C192.476 29.9333 191.989 29.54 191.576 29.02C191.176 28.4867 190.976 27.78 190.976 26.9C190.976 26.0733 191.183 25.3533 191.596 24.74C192.009 24.1267 192.589 23.66 193.336 23.34C194.083 23.0067 194.936 22.84 195.896 22.84C197.336 22.84 198.503 23.1933 199.396 23.9C200.303 24.5933 200.803 25.5667 200.896 26.82H197.816C197.789 26.34 197.583 25.9467 197.196 25.64C196.823 25.32 196.323 25.16 195.696 25.16C195.149 25.16 194.709 25.3 194.376 25.58C194.056 25.86 193.896 26.2667 193.896 26.8C193.896 27.1733 194.016 27.4867 194.256 27.74C194.509 27.98 194.816 28.18 195.176 28.34C195.549 28.4867 196.069 28.66 196.736 28.86C197.643 29.1267 198.383 29.3933 198.956 29.66C199.529 29.9267 200.023 30.3267 200.436 30.86C200.849 31.3933 201.056 32.0933 201.056 32.96C201.056 33.7067 200.863 34.4 200.476 35.04C200.089 35.68 199.523 36.1933 198.776 36.58C198.029 36.9533 197.143 37.14 196.116 37.14ZM213.664 27.36C213.664 28.1067 213.484 28.8067 213.124 29.46C212.777 30.1133 212.224 30.64 211.464 31.04C210.717 31.44 209.77 31.64 208.624 31.64H206.284V37H203.484V23.04H208.624C209.704 23.04 210.624 23.2267 211.384 23.6C212.144 23.9733 212.71 24.4867 213.084 25.14C213.47 25.7933 213.664 26.5333 213.664 27.36ZM208.504 29.38C209.277 29.38 209.85 29.2067 210.224 28.86C210.597 28.5 210.784 28 210.784 27.36C210.784 26 210.024 25.32 208.504 25.32H206.284V29.38H208.504ZM222.131 37.14C220.825 37.14 219.625 36.8333 218.531 36.22C217.438 35.6067 216.571 34.76 215.931 33.68C215.291 32.5867 214.971 31.3533 214.971 29.98C214.971 28.62 215.291 27.4 215.931 26.32C216.571 25.2267 217.438 24.3733 218.531 23.76C219.625 23.1467 220.825 22.84 222.131 22.84C223.451 22.84 224.651 23.1467 225.731 23.76C226.825 24.3733 227.685 25.2267 228.311 26.32C228.951 27.4 229.271 28.62 229.271 29.98C229.271 31.3533 228.951 32.5867 228.311 33.68C227.685 34.76 226.825 35.6067 225.731 36.22C224.638 36.8333 223.438 37.14 222.131 37.14ZM222.131 34.64C222.971 34.64 223.711 34.4533 224.351 34.08C224.991 33.6933 225.491 33.1467 225.851 32.44C226.211 31.7333 226.391 30.9133 226.391 29.98C226.391 29.0467 226.211 28.2333 225.851 27.54C225.491 26.8333 224.991 26.2933 224.351 25.92C223.711 25.5467 222.971 25.36 222.131 25.36C221.291 25.36 220.545 25.5467 219.891 25.92C219.251 26.2933 218.751 26.8333 218.391 27.54C218.031 28.2333 217.851 29.0467 217.851 29.98C217.851 30.9133 218.031 31.7333 218.391 32.44C218.751 33.1467 219.251 33.6933 219.891 34.08C220.545 34.4533 221.291 34.64 222.131 34.64ZM240.855 23.04V25.3H237.135V37H234.335V25.3H230.615V23.04H240.855ZM245.698 23.04V37H242.898V23.04H245.698ZM257.084 23.04V25.3H251.264V28.88H255.724V31.1H251.264V37H248.464V23.04H257.084ZM270.169 23.04L265.449 32.14V37H262.649V32.14L257.909 23.04H261.069L264.069 29.42L267.049 23.04H270.169Z" fill="white"/>
<path d="M45 12C33.9543 12 25 20.9543 25 32C25 43.0457 33.9543 52 45 52C56.0457 52 65 43.0457 65 32C65 20.9543 56.0457 12 45 12ZM53.7043 41.0255C53.45 41.4606 52.9923 41.7032 52.5222 41.7033C52.2878 41.7033 52.0504 41.643 51.8334 41.5162C48.2394 39.4158 44.0874 39.0783 41.2365 39.165C38.0785 39.261 35.7626 39.8844 35.7396 39.8908C35.0116 40.0897 34.2593 39.6613 34.0596 38.9334C33.86 38.2056 34.2869 37.4538 35.0145 37.2533C35.1189 37.2246 37.611 36.5477 41.0765 36.4334C43.1178 36.3661 45.083 36.5083 46.9166 36.8562C49.2391 37.2967 51.3576 38.0701 53.2135 39.1547C53.8657 39.5358 54.0853 40.3734 53.7043 41.0255ZM56.2469 35.7446C55.9457 36.2601 55.4036 36.5474 54.8467 36.5475C54.5691 36.5475 54.2878 36.4762 54.0308 36.3259C49.7737 33.8379 44.8554 33.4383 41.4785 33.5409C37.7377 33.6547 34.9945 34.3932 34.9673 34.4006C34.1052 34.6359 33.2139 34.1288 32.9773 33.2666C32.7409 32.4044 33.2466 31.514 34.1084 31.2765C34.2321 31.2425 37.184 30.4406 41.289 30.3053C43.7072 30.2256 46.0349 30.394 48.2068 30.806C50.9578 31.328 53.4673 32.2439 55.6656 33.5286C56.4382 33.98 56.6984 34.9722 56.2469 35.7446ZM57.8099 30.9431C57.4694 30.9431 57.1244 30.8555 56.8091 30.6713C46.6881 24.7564 33.5592 28.2728 33.4278 28.3091C32.3696 28.6006 31.2758 27.9792 30.9843 26.9211C30.6928 25.863 31.3142 24.7691 32.3723 24.4776C32.5239 24.4358 36.1448 23.4523 41.18 23.2863C44.1462 23.1886 47.0013 23.3952 49.6654 23.9005C53.0398 24.5407 56.118 25.6642 58.8144 27.2401C59.7619 27.7938 60.0811 29.0107 59.5274 29.9582C59.158 30.5905 58.493 30.9431 57.8099 30.9431Z" fill="white"/>
</svg>
