<svg width="21" height="30" viewBox="0 0 21 30" fill="none" xmlns="http://www.w3.org/2000/svg">
<path d="M0.171328 29.2V27.64L2.21133 27.58C4.21133 27.58 6.25133 27.26 8.33133 26.62C10.4113 25.94 12.0113 24.88 13.1313 23.44C14.2513 21.96 14.8113 20.16 14.8113 18.04C14.4113 18.52 13.6513 18.92 12.5313 19.24C11.4513 19.56 10.2913 19.72 9.05133 19.72C7.33133 19.72 5.79133 19.3 4.43133 18.46C3.11133 17.62 2.07133 16.5 1.31133 15.1C0.551328 13.66 0.171328 12.08 0.171328 10.36C0.171328 7.44 1.09133 5.06 2.93133 3.22C4.77133 1.34 7.21133 0.399997 10.2513 0.399997C12.2513 0.399997 14.0513 0.879997 15.6513 1.84C17.2513 2.76 18.5113 4.12 19.4313 5.92C20.3513 7.68 20.8113 9.84 20.8113 12.4C20.8113 14.92 20.3113 17.3 19.3113 19.54C18.3513 21.74 17.0513 23.58 15.4113 25.06C14.3313 26.02 13.1313 26.82 11.8113 27.46C10.4913 28.06 8.89133 28.5 7.01133 28.78C5.17133 29.06 2.89133 29.2 0.171328 29.2Z" fill="black"/>
</svg>
