<svg width="21" height="30" viewBox="0 0 21 30" fill="none" xmlns="http://www.w3.org/2000/svg">
<path d="M10.7313 29.2C7.73133 29.2 5.21133 28.18 3.17133 26.14C1.17133 24.06 0.171328 21.08 0.171328 17.2C0.171328 14.92 0.551328 12.8 1.31133 10.84C2.11133 8.84 3.19133 7.1 4.55133 5.62C5.91133 4.1 7.45133 2.96 9.17133 2.2C11.8113 0.999998 15.6913 0.399997 20.8113 0.399997V1.96C15.6513 1.96 11.9113 2.8 9.59133 4.48C7.31133 6.16 6.17133 8.52 6.17133 11.56C6.49133 11.12 7.21133 10.74 8.33133 10.42C9.49133 10.06 10.6913 9.88 11.9313 9.88C13.6913 9.88 15.2313 10.3 16.5513 11.14C17.8713 11.98 18.9113 13.12 19.6713 14.56C20.4313 15.96 20.8113 17.52 20.8113 19.24C20.8113 22.12 19.8913 24.5 18.0513 26.38C16.2513 28.26 13.8113 29.2 10.7313 29.2Z" fill="black"/>
</svg>
