<svg width="280" height="261" viewBox="0 0 280 261" fill="none" xmlns="http://www.w3.org/2000/svg">
<path d="M248.344 222.5C248.344 213.75 241.25 206.656 232.5 206.656C223.75 206.656 216.656 213.75 216.656 222.5C216.656 231.25 223.75 238.344 232.5 238.344C241.25 238.344 248.344 231.25 248.344 222.5ZM232.146 229.459C232.032 229.346 231.942 229.212 231.88 229.065C231.818 228.917 231.786 228.759 231.785 228.599C231.785 228.439 231.816 228.28 231.876 228.132C231.937 227.984 232.026 227.849 232.139 227.735L236.124 223.719H225.949C225.626 223.719 225.316 223.59 225.087 223.362C224.859 223.133 224.73 222.823 224.73 222.5C224.73 222.177 224.859 221.867 225.087 221.638C225.316 221.41 225.626 221.281 225.949 221.281H236.124L232.139 217.265C232.026 217.151 231.937 217.016 231.876 216.868C231.816 216.72 231.785 216.561 231.786 216.401C231.786 216.241 231.819 216.082 231.88 215.935C231.942 215.787 232.033 215.653 232.147 215.54C232.26 215.427 232.395 215.338 232.543 215.278C232.692 215.217 232.85 215.186 233.01 215.187C233.334 215.188 233.643 215.318 233.871 215.548L239.918 221.642C240.145 221.87 240.272 222.178 240.272 222.5C240.272 222.822 240.145 223.13 239.918 223.358L233.871 229.452C233.758 229.566 233.624 229.657 233.476 229.719C233.329 229.781 233.17 229.813 233.01 229.813C232.85 229.814 232.691 229.783 232.543 229.722C232.394 229.662 232.259 229.572 232.146 229.459Z" fill="black"/>
<path d="M32.1712 145L241.612 131.478L252.923 155.898L46.1508 168.735L32.1712 145Z" fill="#F6F6F6"/>
<path d="M185.967 40.0492V1.5H186.5V40.0492V40.5103L186.759 40.8918L200.157 60.622L200.527 61.1669L201.179 61.2632L215.392 63.3631L216.539 125.5H197.167V104.428V102.928H195.667H158.333H156.833V104.428V125.5H137.433V59.7793V58.2793H135.933H122.5V35.4952L136.119 33.7986L137.433 33.6348V32.3101V24.0723H139.667C149.116 24.0723 156.802 31.7197 156.833 41.118L155.158 62.3822L154.994 64.461L157.017 63.9552L167.899 61.2345L168.362 61.1186L168.674 60.7561L185.605 41.026L185.967 40.6045V40.0492ZM220.754 54.3181C220.531 54.4986 220.311 54.6848 220.096 54.8762C220.529 53.4646 221.032 52.1636 221.655 51.0164C222.45 49.554 223.403 48.4179 224.591 47.6421C225.767 46.8738 227.267 46.3965 229.267 46.3965H231.5V50.8379H229.267C226.274 50.8379 223.198 52.3375 220.754 54.3181ZM224.175 68.3158C223.747 67.4505 223.278 66.6032 222.776 65.8043C227.845 68.4535 231.5 72.7609 231.5 78.3828V80.6035H227.033V78.3828C227.033 75.6328 225.848 71.6986 224.175 68.3158Z" stroke="black" stroke-width="3"/>
<path d="M210.726 121.752C210.726 121.787 210.714 121.816 210.69 121.84C210.666 121.864 210.637 121.876 210.602 121.876C210.567 121.876 210.538 121.864 210.514 121.84C210.49 121.816 210.478 121.787 210.478 121.752C210.478 121.719 210.49 121.691 210.514 121.668C210.538 121.644 210.567 121.632 210.602 121.632C210.637 121.632 210.666 121.644 210.69 121.668C210.714 121.691 210.726 121.719 210.726 121.752ZM210.904 121.664L212 121.664L212 121.846L210.904 121.846L210.904 121.664ZM211.054 121.132L211.7 121.132C211.753 121.132 211.791 121.12 211.814 121.098C211.835 121.075 211.846 121.036 211.846 120.98L211.846 120.846L212 120.846L212 121.01C212 121.111 211.977 121.187 211.93 121.238C211.883 121.288 211.807 121.314 211.7 121.314L211.054 121.314L211.054 121.456L210.904 121.456L210.904 121.314L210.628 121.314L210.628 121.132L210.904 121.132L210.904 120.846L211.054 120.846L211.054 121.132ZM210.408 120.533L210.806 120.557L210.806 120.683L210.408 120.709L210.408 120.533ZM212.018 119.919C212.018 120.003 212.004 120.078 211.976 120.145C211.947 120.212 211.907 120.264 211.856 120.303C211.804 120.342 211.745 120.363 211.678 120.367L211.678 120.179C211.733 120.174 211.777 120.148 211.812 120.103C211.847 120.056 211.864 119.996 211.864 119.921C211.864 119.852 211.849 119.797 211.818 119.757C211.787 119.717 211.749 119.697 211.702 119.697C211.654 119.697 211.619 119.718 211.596 119.761C211.572 119.804 211.549 119.87 211.526 119.959C211.505 120.04 211.483 120.107 211.462 120.159C211.439 120.21 211.407 120.254 211.364 120.291C211.32 120.327 211.263 120.345 211.192 120.345C211.136 120.345 211.085 120.328 211.038 120.295C210.991 120.262 210.955 120.214 210.928 120.153C210.9 120.092 210.886 120.022 210.886 119.943C210.886 119.822 210.917 119.724 210.978 119.649C211.039 119.574 211.123 119.534 211.23 119.529L211.23 119.711C211.173 119.715 211.127 119.738 211.092 119.781C211.057 119.822 211.04 119.878 211.04 119.949C211.04 120.014 211.054 120.066 211.082 120.105C211.11 120.144 211.147 120.163 211.192 120.163C211.228 120.163 211.258 120.152 211.282 120.129C211.305 120.105 211.323 120.076 211.338 120.041C211.351 120.005 211.367 119.956 211.384 119.893C211.405 119.814 211.427 119.75 211.448 119.701C211.468 119.652 211.499 119.61 211.54 119.575C211.581 119.539 211.635 119.52 211.702 119.519C211.762 119.519 211.816 119.536 211.864 119.569C211.912 119.602 211.95 119.65 211.978 119.711C212.005 119.771 212.018 119.84 212.018 119.919ZM212.018 118.341C212.018 118.425 212.004 118.5 211.976 118.567C211.947 118.633 211.907 118.686 211.856 118.725C211.804 118.763 211.745 118.785 211.678 118.789L211.678 118.601C211.733 118.595 211.777 118.57 211.812 118.525C211.847 118.478 211.864 118.417 211.864 118.343C211.864 118.273 211.849 118.219 211.818 118.179C211.787 118.139 211.749 118.119 211.702 118.119C211.654 118.119 211.619 118.14 211.596 118.183C211.572 118.225 211.549 118.291 211.526 118.381C211.505 118.462 211.483 118.529 211.462 118.581C211.439 118.631 211.407 118.675 211.364 118.713C211.32 118.749 211.263 118.767 211.192 118.767C211.136 118.767 211.085 118.75 211.038 118.717C210.991 118.683 210.955 118.636 210.928 118.575C210.9 118.513 210.886 118.443 210.886 118.365C210.886 118.243 210.917 118.145 210.978 118.071C211.039 117.996 211.123 117.956 211.23 117.951L211.23 118.133C211.173 118.137 211.127 118.16 211.092 118.203C211.057 118.244 211.04 118.3 211.04 118.371C211.04 118.436 211.054 118.488 211.082 118.527C211.11 118.565 211.147 118.585 211.192 118.585C211.228 118.585 211.258 118.573 211.282 118.551C211.305 118.527 211.323 118.497 211.338 118.463C211.351 118.427 211.367 118.377 211.384 118.315C211.405 118.236 211.427 118.172 211.448 118.123C211.468 118.073 211.499 118.031 211.54 117.997C211.581 117.961 211.635 117.942 211.702 117.941C211.762 117.941 211.816 117.957 211.864 117.991C211.912 118.024 211.95 118.071 211.978 118.133C212.005 118.193 212.018 118.262 212.018 118.341ZM210.904 116.712L212 116.712L212 116.894L211.838 116.894C211.894 116.929 211.938 116.977 211.97 117.04C212.001 117.101 212.016 117.169 212.016 117.244C212.016 117.329 211.999 117.406 211.964 117.474C211.928 117.542 211.875 117.596 211.804 117.636C211.733 117.675 211.647 117.694 211.546 117.694L210.904 117.694L210.904 117.514L211.522 117.514C211.63 117.514 211.713 117.487 211.772 117.432C211.829 117.377 211.858 117.303 211.858 117.208C211.858 117.111 211.828 117.034 211.768 116.978C211.708 116.922 211.621 116.894 211.506 116.894L210.904 116.894L210.904 116.712ZM211.106 116.223C211.043 116.187 210.991 116.133 210.95 116.063C210.907 115.991 210.886 115.907 210.886 115.813C210.886 115.715 210.909 115.627 210.956 115.549C211.003 115.469 211.069 115.406 211.154 115.361C211.238 115.315 211.336 115.293 211.448 115.293C211.559 115.293 211.657 115.315 211.744 115.361C211.831 115.406 211.898 115.469 211.946 115.549C211.994 115.627 212.018 115.715 212.018 115.813C212.018 115.906 211.997 115.989 211.956 116.061C211.913 116.131 211.861 116.185 211.798 116.223L212.52 116.223L212.52 116.405L210.904 116.405L210.904 116.223L211.106 116.223ZM211.448 115.479C211.365 115.479 211.293 115.495 211.232 115.529C211.171 115.562 211.124 115.607 211.092 115.665C211.06 115.721 211.044 115.783 211.044 115.851C211.044 115.917 211.061 115.979 211.094 116.037C211.126 116.093 211.173 116.138 211.236 116.173C211.297 116.206 211.369 116.223 211.45 116.223C211.533 116.223 211.605 116.206 211.668 116.173C211.729 116.138 211.777 116.093 211.81 116.037C211.842 115.979 211.858 115.917 211.858 115.851C211.858 115.783 211.842 115.721 211.81 115.665C211.777 115.607 211.729 115.562 211.668 115.529C211.605 115.495 211.532 115.479 211.448 115.479ZM211.106 114.871C211.043 114.835 210.991 114.782 210.95 114.711C210.907 114.639 210.886 114.556 210.886 114.461C210.886 114.364 210.909 114.276 210.956 114.197C211.003 114.117 211.069 114.054 211.154 114.009C211.238 113.964 211.336 113.941 211.448 113.941C211.559 113.941 211.657 113.964 211.744 114.009C211.831 114.054 211.898 114.117 211.946 114.197C211.994 114.276 212.018 114.364 212.018 114.461C212.018 114.554 211.997 114.637 211.956 114.709C211.913 114.78 211.861 114.834 211.798 114.871L212.52 114.871L212.52 115.053L210.904 115.053L210.904 114.871L211.106 114.871ZM211.448 114.127C211.365 114.127 211.293 114.144 211.232 114.177C211.171 114.21 211.124 114.256 211.092 114.313C211.06 114.369 211.044 114.431 211.044 114.499C211.044 114.566 211.061 114.628 211.094 114.685C211.126 114.741 211.173 114.786 211.236 114.821C211.297 114.854 211.369 114.871 211.45 114.871C211.533 114.871 211.605 114.854 211.668 114.821C211.729 114.786 211.777 114.741 211.81 114.685C211.842 114.628 211.858 114.566 211.858 114.499C211.858 114.431 211.842 114.369 211.81 114.313C211.777 114.256 211.729 114.21 211.668 114.177C211.605 114.144 211.532 114.127 211.448 114.127ZM212.018 113.223C212.018 113.326 211.995 113.419 211.948 113.503C211.901 113.586 211.835 113.651 211.75 113.699C211.663 113.746 211.563 113.769 211.45 113.769C211.338 113.769 211.239 113.745 211.154 113.697C211.067 113.648 211.001 113.581 210.956 113.497C210.909 113.413 210.886 113.319 210.886 113.215C210.886 113.111 210.909 113.017 210.956 112.933C211.001 112.849 211.067 112.783 211.152 112.735C211.237 112.686 211.337 112.661 211.45 112.661C211.563 112.661 211.663 112.687 211.75 112.737C211.835 112.787 211.901 112.854 211.948 112.939C211.995 113.025 212.018 113.119 212.018 113.223ZM211.858 113.223C211.858 113.158 211.843 113.097 211.812 113.039C211.781 112.982 211.735 112.936 211.674 112.901C211.613 112.865 211.538 112.847 211.45 112.847C211.362 112.847 211.287 112.865 211.226 112.899C211.165 112.934 211.119 112.979 211.09 113.035C211.059 113.091 211.044 113.152 211.044 113.217C211.044 113.284 211.059 113.345 211.09 113.401C211.119 113.456 211.165 113.5 211.226 113.533C211.287 113.567 211.362 113.583 211.45 113.583C211.539 113.583 211.615 113.567 211.676 113.535C211.737 113.502 211.783 113.458 211.814 113.403C211.843 113.349 211.858 113.289 211.858 113.223ZM212.018 112.034C212.018 112.118 212.004 112.194 211.976 112.26C211.947 112.327 211.907 112.38 211.856 112.418C211.804 112.457 211.745 112.478 211.678 112.482L211.678 112.294C211.733 112.289 211.777 112.264 211.812 112.218C211.847 112.172 211.864 112.111 211.864 112.036C211.864 111.967 211.849 111.912 211.818 111.872C211.787 111.832 211.749 111.812 211.702 111.812C211.654 111.812 211.619 111.834 211.596 111.876C211.572 111.919 211.549 111.985 211.526 112.074C211.505 112.156 211.483 112.222 211.462 112.274C211.439 112.325 211.407 112.369 211.364 112.406C211.32 112.442 211.263 112.46 211.192 112.46C211.136 112.46 211.085 112.444 211.038 112.41C210.991 112.377 210.955 112.33 210.928 112.268C210.9 112.207 210.886 112.137 210.886 112.058C210.886 111.937 210.917 111.839 210.978 111.764C211.039 111.69 211.123 111.65 211.23 111.644L211.23 111.826C211.173 111.83 211.127 111.854 211.092 111.896C211.057 111.938 211.04 111.994 211.04 112.064C211.04 112.13 211.054 112.182 211.082 112.22C211.11 112.259 211.147 112.278 211.192 112.278C211.228 112.278 211.258 112.267 211.282 112.244C211.305 112.22 211.323 112.191 211.338 112.156C211.351 112.12 211.367 112.071 211.384 112.008C211.405 111.93 211.427 111.866 211.448 111.816C211.468 111.767 211.499 111.725 211.54 111.69C211.581 111.654 211.635 111.636 211.702 111.634C211.762 111.634 211.816 111.651 211.864 111.684C211.912 111.718 211.95 111.765 211.978 111.826C212.005 111.886 212.018 111.956 212.018 112.034ZM211.41 110.377C211.445 110.377 211.481 110.379 211.52 110.383L211.52 111.259C211.628 111.253 211.713 111.216 211.774 111.149C211.834 111.081 211.864 110.999 211.864 110.903C211.864 110.825 211.846 110.759 211.81 110.707C211.773 110.654 211.723 110.617 211.662 110.595L211.662 110.399C211.767 110.429 211.853 110.487 211.92 110.575C211.985 110.663 212.018 110.773 212.018 110.903C212.018 111.007 211.995 111.101 211.948 111.183C211.901 111.265 211.835 111.329 211.75 111.375C211.663 111.422 211.563 111.445 211.45 111.445C211.337 111.445 211.237 111.423 211.152 111.377C211.067 111.332 211.001 111.269 210.956 111.187C210.909 111.105 210.886 111.01 210.886 110.903C210.886 110.799 210.909 110.707 210.954 110.627C210.999 110.547 211.062 110.486 211.142 110.443C211.221 110.399 211.31 110.377 211.41 110.377ZM211.372 110.565C211.303 110.565 211.243 110.581 211.194 110.611C211.143 110.642 211.105 110.684 211.08 110.737C211.053 110.789 211.04 110.847 211.04 110.911C211.04 111.003 211.069 111.082 211.128 111.147C211.187 111.211 211.268 111.248 211.372 111.257L211.372 110.565ZM211.448 110.205C211.336 110.205 211.238 110.182 211.154 110.137C211.069 110.092 211.003 110.03 210.956 109.951C210.909 109.871 210.886 109.782 210.886 109.683C210.886 109.598 210.906 109.518 210.946 109.445C210.985 109.372 211.036 109.316 211.1 109.277L210.52 109.277L210.52 109.093L212 109.093L212 109.277L211.794 109.277C211.859 109.313 211.913 109.366 211.956 109.437C211.997 109.508 212.018 109.59 212.018 109.685C212.018 109.782 211.994 109.871 211.946 109.951C211.898 110.03 211.831 110.092 211.744 110.137C211.657 110.182 211.559 110.205 211.448 110.205ZM211.45 109.277C211.367 109.277 211.295 109.294 211.234 109.327C211.173 109.36 211.126 109.406 211.094 109.463C211.061 109.519 211.044 109.581 211.044 109.649C211.044 109.717 211.06 109.779 211.092 109.835C211.124 109.891 211.171 109.936 211.232 109.969C211.293 110.002 211.365 110.019 211.448 110.019C211.532 110.019 211.605 110.002 211.668 109.969C211.729 109.936 211.777 109.891 211.81 109.835C211.842 109.779 211.858 109.717 211.858 109.649C211.858 109.581 211.842 109.519 211.81 109.463C211.777 109.406 211.729 109.36 211.668 109.327C211.605 109.294 211.533 109.277 211.45 109.277ZM211.054 108.03L211.7 108.03C211.753 108.03 211.791 108.019 211.814 107.996C211.835 107.974 211.846 107.934 211.846 107.878L211.846 107.744L212 107.744L212 107.908C212 108.01 211.977 108.086 211.93 108.136C211.883 108.187 211.807 108.212 211.7 108.212L211.054 108.212L211.054 108.354L210.904 108.354L210.904 108.212L210.628 108.212L210.628 108.03L210.904 108.03L210.904 107.744L211.054 107.744L211.054 108.03ZM212.018 107.046C212.018 107.148 211.995 107.242 211.948 107.326C211.901 107.408 211.835 107.474 211.75 107.522C211.663 107.568 211.563 107.592 211.45 107.592C211.338 107.592 211.239 107.568 211.154 107.52C211.067 107.47 211.001 107.404 210.956 107.32C210.909 107.236 210.886 107.142 210.886 107.038C210.886 106.934 210.909 106.84 210.956 106.756C211.001 106.672 211.067 106.606 211.152 106.558C211.237 106.508 211.337 106.484 211.45 106.484C211.563 106.484 211.663 106.509 211.75 106.56C211.835 106.609 211.901 106.676 211.948 106.762C211.995 106.847 212.018 106.942 212.018 107.046ZM211.858 107.046C211.858 106.98 211.843 106.919 211.812 106.862C211.781 106.804 211.735 106.758 211.674 106.724C211.613 106.688 211.538 106.67 211.45 106.67C211.362 106.67 211.287 106.687 211.226 106.722C211.165 106.756 211.119 106.802 211.09 106.858C211.059 106.914 211.044 106.974 211.044 107.04C211.044 107.106 211.059 107.168 211.09 107.224C211.119 107.278 211.165 107.322 211.226 107.356C211.287 107.389 211.362 107.406 211.45 107.406C211.539 107.406 211.615 107.39 211.676 107.358C211.737 107.324 211.783 107.28 211.814 107.226C211.843 107.171 211.858 107.111 211.858 107.046ZM211.108 105.529C211.043 105.492 210.989 105.437 210.948 105.365C210.907 105.293 210.886 105.211 210.886 105.119C210.886 105.021 210.909 104.932 210.956 104.853C211.003 104.775 211.069 104.713 211.154 104.667C211.238 104.622 211.336 104.599 211.448 104.599C211.559 104.599 211.657 104.622 211.744 104.667C211.831 104.713 211.898 104.775 211.946 104.855C211.994 104.934 212.018 105.022 212.018 105.119C212.018 105.214 211.997 105.297 211.956 105.369C211.915 105.44 211.862 105.493 211.798 105.529L212 105.529L212 105.711L210.52 105.711L210.52 105.529L211.108 105.529ZM211.448 104.785C211.365 104.785 211.293 104.802 211.232 104.835C211.171 104.869 211.124 104.914 211.092 104.971C211.06 105.027 211.044 105.089 211.044 105.157C211.044 105.224 211.061 105.286 211.094 105.343C211.126 105.399 211.173 105.445 211.236 105.479C211.297 105.513 211.369 105.529 211.45 105.529C211.533 105.529 211.605 105.513 211.668 105.479C211.729 105.445 211.777 105.399 211.81 105.343C211.842 105.286 211.858 105.224 211.858 105.157C211.858 105.089 211.842 105.027 211.81 104.971C211.777 104.914 211.729 104.869 211.668 104.835C211.605 104.802 211.532 104.785 211.448 104.785ZM211.41 103.36C211.445 103.36 211.481 103.362 211.52 103.366L211.52 104.242C211.628 104.235 211.713 104.198 211.774 104.132C211.834 104.064 211.864 103.982 211.864 103.886C211.864 103.807 211.846 103.742 211.81 103.69C211.773 103.636 211.723 103.599 211.662 103.578L211.662 103.382C211.767 103.411 211.853 103.47 211.92 103.558C211.985 103.646 212.018 103.755 212.018 103.886C212.018 103.99 211.995 104.083 211.948 104.166C211.901 104.247 211.835 104.311 211.75 104.358C211.663 104.404 211.563 104.428 211.45 104.428C211.337 104.428 211.237 104.405 211.152 104.36C211.067 104.314 211.001 104.251 210.956 104.17C210.909 104.087 210.886 103.992 210.886 103.886C210.886 103.782 210.909 103.69 210.954 103.61C210.999 103.53 211.062 103.468 211.142 103.426C211.221 103.382 211.31 103.36 211.41 103.36ZM211.372 103.548C211.303 103.548 211.243 103.563 211.194 103.594C211.143 103.624 211.105 103.666 211.08 103.72C211.053 103.772 211.04 103.83 211.04 103.894C211.04 103.986 211.069 104.064 211.128 104.13C211.187 104.194 211.268 104.23 211.372 104.24L211.372 103.548ZM211.448 102.654C211.336 102.654 211.238 102.632 211.154 102.586C211.069 102.541 211.003 102.479 210.956 102.4C210.909 102.32 210.886 102.232 210.886 102.134C210.886 102.038 210.907 101.955 210.948 101.884C210.989 101.814 211.041 101.761 211.104 101.726L210.904 101.726L210.904 101.542L212 101.542L212 101.726L211.796 101.726C211.86 101.762 211.913 101.816 211.956 101.888C211.997 101.959 212.018 102.042 212.018 102.136C212.018 102.234 211.994 102.322 211.946 102.4C211.898 102.479 211.831 102.541 211.744 102.586C211.657 102.632 211.559 102.654 211.448 102.654ZM211.45 101.726C211.367 101.726 211.295 101.743 211.234 101.776C211.173 101.81 211.126 101.855 211.094 101.912C211.061 101.968 211.044 102.03 211.044 102.098C211.044 102.166 211.06 102.228 211.092 102.284C211.124 102.34 211.171 102.385 211.232 102.418C211.293 102.452 211.365 102.468 211.448 102.468C211.532 102.468 211.605 102.452 211.668 102.418C211.729 102.385 211.777 102.34 211.81 102.284C211.842 102.228 211.858 102.166 211.858 102.098C211.858 102.03 211.842 101.968 211.81 101.912C211.777 101.855 211.729 101.81 211.668 101.776C211.605 101.743 211.533 101.726 211.45 101.726ZM211.106 100.519C211.043 100.483 210.991 100.43 210.95 100.359C210.907 100.287 210.886 100.204 210.886 100.109C210.886 100.012 210.909 99.9241 210.956 99.8455C211.003 99.7655 211.069 99.7028 211.154 99.6575C211.238 99.6121 211.336 99.5895 211.448 99.5895C211.559 99.5895 211.657 99.6121 211.744 99.6575C211.831 99.7028 211.898 99.7655 211.946 99.8455C211.994 99.9241 212.018 100.012 212.018 100.109C212.018 100.203 211.997 100.285 211.956 100.357C211.913 100.428 211.861 100.482 211.798 100.519L212.52 100.519L212.52 100.701L210.904 100.701L210.904 100.519L211.106 100.519ZM211.448 99.7755C211.365 99.7755 211.293 99.7921 211.232 99.8255C211.171 99.8588 211.124 99.9041 211.092 99.9615C211.06 100.017 211.044 100.079 211.044 100.147C211.044 100.214 211.061 100.276 211.094 100.333C211.126 100.389 211.173 100.435 211.236 100.469C211.297 100.503 211.369 100.519 211.45 100.519C211.533 100.519 211.605 100.503 211.668 100.469C211.729 100.435 211.777 100.389 211.81 100.333C211.842 100.276 211.858 100.214 211.858 100.147C211.858 100.079 211.842 100.017 211.81 99.9615C211.777 99.9041 211.729 99.8588 211.668 99.8255C211.605 99.7921 211.532 99.7755 211.448 99.7755ZM210.726 99.2559C210.726 99.2906 210.714 99.3199 210.69 99.3439C210.666 99.3679 210.637 99.3799 210.602 99.3799C210.567 99.3799 210.538 99.3679 210.514 99.3439C210.49 99.3199 210.478 99.2906 210.478 99.2559C210.478 99.2226 210.49 99.1946 210.514 99.1719C210.538 99.1479 210.567 99.1359 210.602 99.1359C210.637 99.1359 210.666 99.1479 210.69 99.1719C210.714 99.1946 210.726 99.2226 210.726 99.2559ZM210.904 99.1679L212 99.1679L212 99.3499L210.904 99.3499L210.904 99.1679ZM210.884 98.3237C210.884 98.1904 210.925 98.0824 211.006 97.9997C211.086 97.9171 211.202 97.8757 211.354 97.8757L212 97.8757L212 98.0557L211.38 98.0557C211.271 98.0557 211.187 98.0831 211.13 98.1377C211.071 98.1924 211.042 98.2671 211.042 98.3617C211.042 98.4577 211.072 98.5344 211.132 98.5917C211.192 98.6477 211.279 98.6757 211.394 98.6757L212 98.6757L212 98.8577L210.904 98.8577L210.904 98.6757L211.06 98.6757C211.004 98.6397 210.961 98.5911 210.93 98.5297C210.899 98.4671 210.884 98.3984 210.884 98.3237ZM211.448 97.6464C211.336 97.6464 211.238 97.6238 211.154 97.5784C211.069 97.5331 211.003 97.4711 210.956 97.3924C210.909 97.3124 210.886 97.2238 210.886 97.1264C210.886 97.0304 210.907 96.9471 210.948 96.8764C210.989 96.8058 211.041 96.7531 211.104 96.7184L210.904 96.7184L210.904 96.5344L212 96.5344L212 96.7184L211.796 96.7184C211.86 96.7544 211.913 96.8084 211.956 96.8804C211.997 96.9511 212.018 97.0338 212.018 97.1284C212.018 97.2258 211.994 97.3138 211.946 97.3924C211.898 97.4711 211.831 97.5331 211.744 97.5784C211.657 97.6238 211.559 97.6464 211.448 97.6464ZM211.45 96.7184C211.367 96.7184 211.295 96.7351 211.234 96.7684C211.173 96.8018 211.126 96.8471 211.094 96.9044C211.061 96.9604 211.044 97.0224 211.044 97.0904C211.044 97.1584 211.06 97.2204 211.092 97.2764C211.124 97.3324 211.171 97.3771 211.232 97.4104C211.293 97.4438 211.365 97.4604 211.448 97.4604C211.532 97.4604 211.605 97.4438 211.668 97.4104C211.729 97.3771 211.777 97.3324 211.81 97.2764C211.842 97.2204 211.858 97.1584 211.858 97.0904C211.858 97.0224 211.842 96.9604 211.81 96.9044C211.777 96.8471 211.729 96.8018 211.668 96.7684C211.605 96.7351 211.533 96.7184 211.45 96.7184ZM211.054 96.0049L211.7 96.0049C211.753 96.0049 211.791 95.9935 211.814 95.9709C211.835 95.9482 211.846 95.9089 211.846 95.8529L211.846 95.7189L212 95.7189L212 95.8829C212 95.9842 211.977 96.0602 211.93 96.1109C211.883 96.1615 211.807 96.1869 211.7 96.1869L211.054 96.1869L211.054 96.3289L210.904 96.3289L210.904 96.1869L210.628 96.1869L210.628 96.0049L210.904 96.0049L210.904 95.7189L211.054 95.7189L211.054 96.0049ZM211.448 95.5663C211.336 95.5663 211.238 95.5437 211.154 95.4983C211.069 95.453 211.003 95.391 210.956 95.3123C210.909 95.2323 210.886 95.1437 210.886 95.0463C210.886 94.9503 210.907 94.867 210.948 94.7963C210.989 94.7257 211.041 94.673 211.104 94.6383L210.904 94.6383L210.904 94.4543L212 94.4543L212 94.6383L211.796 94.6383C211.86 94.6743 211.913 94.7283 211.956 94.8003C211.997 94.871 212.018 94.9537 212.018 95.0483C212.018 95.1457 211.994 95.2337 211.946 95.3123C211.898 95.391 211.831 95.453 211.744 95.4983C211.657 95.5437 211.559 95.5663 211.448 95.5663ZM211.45 94.6383C211.367 94.6383 211.295 94.655 211.234 94.6883C211.173 94.7217 211.126 94.767 211.094 94.8243C211.061 94.8803 211.044 94.9423 211.044 95.0103C211.044 95.0783 211.06 95.1403 211.092 95.1963C211.124 95.2523 211.171 95.297 211.232 95.3303C211.293 95.3637 211.365 95.3803 211.448 95.3803C211.532 95.3803 211.605 95.3637 211.668 95.3303C211.729 95.297 211.777 95.2523 211.81 95.1963C211.842 95.1403 211.858 95.0783 211.858 95.0103C211.858 94.9423 211.842 94.8803 211.81 94.8243C211.777 94.767 211.729 94.7217 211.668 94.6883C211.605 94.655 211.533 94.6383 211.45 94.6383Z" fill="black"/>
<path d="M34.94 202.21C33.56 202.21 32.32 201.97 31.22 201.49C30.14 200.99 29.29 200.31 28.67 199.45C28.05 198.57 27.73 197.56 27.71 196.42H30.62C30.72 197.4 31.12 198.23 31.82 198.91C32.54 199.57 33.58 199.9 34.94 199.9C36.24 199.9 37.26 199.58 38 198.94C38.76 198.28 39.14 197.44 39.14 196.42C39.14 195.62 38.92 194.97 38.48 194.47C38.04 193.97 37.49 193.59 36.83 193.33C36.17 193.07 35.28 192.79 34.16 192.49C32.78 192.13 31.67 191.77 30.83 191.41C30.01 191.05 29.3 190.49 28.7 189.73C28.12 188.95 27.83 187.91 27.83 186.61C27.83 185.47 28.12 184.46 28.7 183.58C29.28 182.7 30.09 182.02 31.13 181.54C32.19 181.06 33.4 180.82 34.76 180.82C36.72 180.82 38.32 181.31 39.56 182.29C40.82 183.27 41.53 184.57 41.69 186.19H38.69C38.59 185.39 38.17 184.69 37.43 184.09C36.69 183.47 35.71 183.16 34.49 183.16C33.35 183.16 32.42 183.46 31.7 184.06C30.98 184.64 30.62 185.46 30.62 186.52C30.62 187.28 30.83 187.9 31.25 188.38C31.69 188.86 32.22 189.23 32.84 189.49C33.48 189.73 34.37 190.01 35.51 190.33C36.89 190.71 38 191.09 38.84 191.47C39.68 191.83 40.4 192.4 41 193.18C41.6 193.94 41.9 194.98 41.9 196.3C41.9 197.32 41.63 198.28 41.09 199.18C40.55 200.08 39.75 200.81 38.69 201.37C37.63 201.93 36.38 202.21 34.94 202.21ZM48.6474 179.8V202H45.9174V179.8H48.6474ZM54.7102 182.89C54.1902 182.89 53.7502 182.71 53.3902 182.35C53.0302 181.99 52.8502 181.55 52.8502 181.03C52.8502 180.51 53.0302 180.07 53.3902 179.71C53.7502 179.35 54.1902 179.17 54.7102 179.17C55.2102 179.17 55.6302 179.35 55.9702 179.71C56.3302 180.07 56.5102 180.51 56.5102 181.03C56.5102 181.55 56.3302 181.99 55.9702 182.35C55.6302 182.71 55.2102 182.89 54.7102 182.89ZM56.0302 185.56V202H53.3002V185.56H56.0302ZM59.663 193.72C59.663 192.04 60.003 190.57 60.683 189.31C61.363 188.03 62.293 187.04 63.473 186.34C64.673 185.64 66.013 185.29 67.493 185.29C68.773 185.29 69.963 185.59 71.063 186.19C72.163 186.77 73.003 187.54 73.583 188.5V179.8H76.343V202H73.583V198.91C73.043 199.89 72.243 200.7 71.183 201.34C70.123 201.96 68.883 202.27 67.463 202.27C66.003 202.27 64.673 201.91 63.473 201.19C62.293 200.47 61.363 199.46 60.683 198.16C60.003 196.86 59.663 195.38 59.663 193.72ZM73.583 193.75C73.583 192.51 73.333 191.43 72.833 190.51C72.333 189.59 71.653 188.89 70.793 188.41C69.953 187.91 69.023 187.66 68.003 187.66C66.983 187.66 66.053 187.9 65.213 188.38C64.373 188.86 63.703 189.56 63.203 190.48C62.703 191.4 62.453 192.48 62.453 193.72C62.453 194.98 62.703 196.08 63.203 197.02C63.703 197.94 64.373 198.65 65.213 199.15C66.053 199.63 66.983 199.87 68.003 199.87C69.023 199.87 69.953 199.63 70.793 199.15C71.653 198.65 72.333 197.94 72.833 197.02C73.333 196.08 73.583 194.99 73.583 193.75ZM95.9565 193.15C95.9565 193.67 95.9265 194.22 95.8665 194.8H82.7265C82.8265 196.42 83.3765 197.69 84.3765 198.61C85.3965 199.51 86.6265 199.96 88.0665 199.96C89.2465 199.96 90.2265 199.69 91.0065 199.15C91.8065 198.59 92.3665 197.85 92.6865 196.93H95.6265C95.1865 198.51 94.3065 199.8 92.9865 200.8C91.6665 201.78 90.0265 202.27 88.0665 202.27C86.5065 202.27 85.1065 201.92 83.8665 201.22C82.6465 200.52 81.6865 199.53 80.9865 198.25C80.2865 196.95 79.9365 195.45 79.9365 193.75C79.9365 192.05 80.2765 190.56 80.9565 189.28C81.6365 188 82.5865 187.02 83.8065 186.34C85.0465 185.64 86.4665 185.29 88.0665 185.29C89.6265 185.29 91.0065 185.63 92.2065 186.31C93.4065 186.99 94.3265 187.93 94.9665 189.13C95.6265 190.31 95.9565 191.65 95.9565 193.15ZM93.1365 192.58C93.1365 191.54 92.9065 190.65 92.4465 189.91C91.9865 189.15 91.3565 188.58 90.5565 188.2C89.7765 187.8 88.9065 187.6 87.9465 187.6C86.5665 187.6 85.3865 188.04 84.4065 188.92C83.4465 189.8 82.8965 191.02 82.7565 192.58H93.1365ZM123.998 202H121.268L110.288 185.35V202H107.558V181.06H110.288L121.268 197.68V181.06H123.998V202ZM135.822 202.27C134.282 202.27 132.882 201.92 131.622 201.22C130.382 200.52 129.402 199.53 128.682 198.25C127.982 196.95 127.632 195.45 127.632 193.75C127.632 192.07 127.992 190.59 128.712 189.31C129.452 188.01 130.452 187.02 131.712 186.34C132.972 185.64 134.382 185.29 135.942 185.29C137.502 185.29 138.912 185.64 140.172 186.34C141.432 187.02 142.422 188 143.142 189.28C143.882 190.56 144.252 192.05 144.252 193.75C144.252 195.45 143.872 196.95 143.112 198.25C142.372 199.53 141.362 200.52 140.082 201.22C138.802 201.92 137.382 202.27 135.822 202.27ZM135.822 199.87C136.802 199.87 137.722 199.64 138.582 199.18C139.442 198.72 140.132 198.03 140.652 197.11C141.192 196.19 141.462 195.07 141.462 193.75C141.462 192.43 141.202 191.31 140.682 190.39C140.162 189.47 139.482 188.79 138.642 188.35C137.802 187.89 136.892 187.66 135.912 187.66C134.912 187.66 133.992 187.89 133.152 188.35C132.332 188.79 131.672 189.47 131.172 190.39C130.672 191.31 130.422 192.43 130.422 193.75C130.422 195.09 130.662 196.22 131.142 197.14C131.642 198.06 132.302 198.75 133.122 199.21C133.942 199.65 134.842 199.87 135.822 199.87ZM151.171 187.81V197.5C151.171 198.3 151.341 198.87 151.681 199.21C152.021 199.53 152.611 199.69 153.451 199.69H155.461V202H153.001C151.481 202 150.341 201.65 149.581 200.95C148.821 200.25 148.441 199.1 148.441 197.5V187.81H146.311V185.56H148.441V181.42H151.171V185.56H155.461V187.81H151.171ZM173.769 193.15C173.769 193.67 173.739 194.22 173.679 194.8H160.539C160.639 196.42 161.189 197.69 162.189 198.61C163.209 199.51 164.439 199.96 165.879 199.96C167.059 199.96 168.039 199.69 168.819 199.15C169.619 198.59 170.179 197.85 170.499 196.93H173.439C172.999 198.51 172.119 199.8 170.799 200.8C169.479 201.78 167.839 202.27 165.879 202.27C164.319 202.27 162.919 201.92 161.679 201.22C160.459 200.52 159.499 199.53 158.799 198.25C158.099 196.95 157.749 195.45 157.749 193.75C157.749 192.05 158.089 190.56 158.769 189.28C159.449 188 160.399 187.02 161.619 186.34C162.859 185.64 164.279 185.29 165.879 185.29C167.439 185.29 168.819 185.63 170.019 186.31C171.219 186.99 172.139 187.93 172.779 189.13C173.439 190.31 173.769 191.65 173.769 193.15ZM170.949 192.58C170.949 191.54 170.719 190.65 170.259 189.91C169.799 189.15 169.169 188.58 168.369 188.2C167.589 187.8 166.719 187.6 165.759 187.6C164.379 187.6 163.199 188.04 162.219 188.92C161.259 189.8 160.709 191.02 160.569 192.58H170.949ZM183.193 202.27C181.933 202.27 180.803 202.06 179.803 201.64C178.803 201.2 178.013 200.6 177.433 199.84C176.853 199.06 176.533 198.17 176.473 197.17H179.293C179.373 197.99 179.753 198.66 180.433 199.18C181.133 199.7 182.043 199.96 183.163 199.96C184.203 199.96 185.023 199.73 185.623 199.27C186.223 198.81 186.523 198.23 186.523 197.53C186.523 196.81 186.203 196.28 185.563 195.94C184.923 195.58 183.933 195.23 182.593 194.89C181.373 194.57 180.373 194.25 179.593 193.93C178.833 193.59 178.173 193.1 177.613 192.46C177.073 191.8 176.803 190.94 176.803 189.88C176.803 189.04 177.053 188.27 177.553 187.57C178.053 186.87 178.763 186.32 179.683 185.92C180.603 185.5 181.653 185.29 182.833 185.29C184.653 185.29 186.123 185.75 187.243 186.67C188.363 187.59 188.963 188.85 189.043 190.45H186.313C186.253 189.59 185.903 188.9 185.263 188.38C184.643 187.86 183.803 187.6 182.743 187.6C181.763 187.6 180.983 187.81 180.403 188.23C179.823 188.65 179.533 189.2 179.533 189.88C179.533 190.42 179.703 190.87 180.043 191.23C180.403 191.57 180.843 191.85 181.363 192.07C181.903 192.27 182.643 192.5 183.583 192.76C184.763 193.08 185.723 193.4 186.463 193.72C187.203 194.02 187.833 194.48 188.353 195.1C188.893 195.72 189.173 196.53 189.193 197.53C189.193 198.43 188.943 199.24 188.443 199.96C187.943 200.68 187.233 201.25 186.313 201.67C185.413 202.07 184.373 202.27 183.193 202.27ZM44.36 232L41.63 229.24C40.61 230.3 39.52 231.09 38.36 231.61C37.2 232.11 35.89 232.36 34.43 232.36C32.99 232.36 31.71 232.1 30.59 231.58C29.49 231.06 28.63 230.32 28.01 229.36C27.41 228.4 27.11 227.28 27.11 226C27.11 224.54 27.52 223.26 28.34 222.16C29.18 221.04 30.41 220.16 32.03 219.52C31.39 218.76 30.93 218.06 30.65 217.42C30.37 216.78 30.23 216.08 30.23 215.32C30.23 214.44 30.45 213.65 30.89 212.95C31.35 212.23 32 211.67 32.84 211.27C33.68 210.87 34.65 210.67 35.75 210.67C36.83 210.67 37.77 210.88 38.57 211.3C39.37 211.72 39.97 212.31 40.37 213.07C40.77 213.81 40.95 214.64 40.91 215.56H38.18C38.2 214.74 37.97 214.1 37.49 213.64C37.01 213.16 36.39 212.92 35.63 212.92C34.83 212.92 34.18 213.15 33.68 213.61C33.2 214.05 32.96 214.62 32.96 215.32C32.96 215.92 33.12 216.5 33.44 217.06C33.78 217.62 34.34 218.31 35.12 219.13L41.36 225.4L41.9 224.56L43.94 221.14H46.88L44.42 225.4C44.08 226 43.68 226.63 43.22 227.29L47.93 232H44.36ZM34.43 230.02C35.51 230.02 36.48 229.81 37.34 229.39C38.22 228.97 39.05 228.32 39.83 227.44L33.68 221.26C31.12 222.24 29.84 223.79 29.84 225.91C29.84 227.09 30.26 228.07 31.1 228.85C31.96 229.63 33.07 230.02 34.43 230.02ZM74.3258 217.15C73.7458 215.93 72.9058 214.99 71.8058 214.33C70.7058 213.65 69.4258 213.31 67.9658 213.31C66.5058 213.31 65.1858 213.65 64.0058 214.33C62.8458 214.99 61.9258 215.95 61.2458 217.21C60.5858 218.45 60.2558 219.89 60.2558 221.53C60.2558 223.17 60.5858 224.61 61.2458 225.85C61.9258 227.09 62.8458 228.05 64.0058 228.73C65.1858 229.39 66.5058 229.72 67.9658 229.72C70.0058 229.72 71.6858 229.11 73.0058 227.89C74.3258 226.67 75.0958 225.02 75.3158 222.94H66.9758V220.72H78.2258V222.82C78.0658 224.54 77.5258 226.12 76.6058 227.56C75.6858 228.98 74.4758 230.11 72.9758 230.95C71.4758 231.77 69.8058 232.18 67.9658 232.18C66.0258 232.18 64.2558 231.73 62.6558 230.83C61.0558 229.91 59.7858 228.64 58.8458 227.02C57.9258 225.4 57.4658 223.57 57.4658 221.53C57.4658 219.49 57.9258 217.66 58.8458 216.04C59.7858 214.4 61.0558 213.13 62.6558 212.23C64.2558 211.31 66.0258 210.85 67.9658 210.85C70.1858 210.85 72.1458 211.4 73.8458 212.5C75.5658 213.6 76.8158 215.15 77.5958 217.15H74.3258ZM89.0054 232.27C87.4654 232.27 86.0654 231.92 84.8054 231.22C83.5654 230.52 82.5854 229.53 81.8654 228.25C81.1654 226.95 80.8154 225.45 80.8154 223.75C80.8154 222.07 81.1754 220.59 81.8954 219.31C82.6354 218.01 83.6354 217.02 84.8954 216.34C86.1554 215.64 87.5654 215.29 89.1254 215.29C90.6854 215.29 92.0954 215.64 93.3554 216.34C94.6154 217.02 95.6054 218 96.3254 219.28C97.0654 220.56 97.4354 222.05 97.4354 223.75C97.4354 225.45 97.0554 226.95 96.2954 228.25C95.5554 229.53 94.5454 230.52 93.2654 231.22C91.9854 231.92 90.5654 232.27 89.0054 232.27ZM89.0054 229.87C89.9854 229.87 90.9054 229.64 91.7654 229.18C92.6254 228.72 93.3154 228.03 93.8354 227.11C94.3754 226.19 94.6454 225.07 94.6454 223.75C94.6454 222.43 94.3854 221.31 93.8654 220.39C93.3454 219.47 92.6654 218.79 91.8254 218.35C90.9854 217.89 90.0754 217.66 89.0954 217.66C88.0954 217.66 87.1754 217.89 86.3354 218.35C85.5154 218.79 84.8554 219.47 84.3554 220.39C83.8554 221.31 83.6054 222.43 83.6054 223.75C83.6054 225.09 83.8454 226.22 84.3254 227.14C84.8254 228.06 85.4854 228.75 86.3054 229.21C87.1254 229.65 88.0254 229.87 89.0054 229.87ZM108.195 232.27C106.655 232.27 105.255 231.92 103.995 231.22C102.755 230.52 101.775 229.53 101.055 228.25C100.355 226.95 100.005 225.45 100.005 223.75C100.005 222.07 100.365 220.59 101.085 219.31C101.825 218.01 102.825 217.02 104.085 216.34C105.345 215.64 106.755 215.29 108.315 215.29C109.875 215.29 111.285 215.64 112.545 216.34C113.805 217.02 114.795 218 115.515 219.28C116.255 220.56 116.625 222.05 116.625 223.75C116.625 225.45 116.245 226.95 115.485 228.25C114.745 229.53 113.735 230.52 112.455 231.22C111.175 231.92 109.755 232.27 108.195 232.27ZM108.195 229.87C109.175 229.87 110.095 229.64 110.955 229.18C111.815 228.72 112.505 228.03 113.025 227.11C113.565 226.19 113.835 225.07 113.835 223.75C113.835 222.43 113.575 221.31 113.055 220.39C112.535 219.47 111.855 218.79 111.015 218.35C110.175 217.89 109.265 217.66 108.285 217.66C107.285 217.66 106.365 217.89 105.525 218.35C104.705 218.79 104.045 219.47 103.545 220.39C103.045 221.31 102.795 222.43 102.795 223.75C102.795 225.09 103.035 226.22 103.515 227.14C104.015 228.06 104.675 228.75 105.495 229.21C106.315 229.65 107.215 229.87 108.195 229.87ZM119.194 223.72C119.194 222.04 119.534 220.57 120.214 219.31C120.894 218.03 121.824 217.04 123.004 216.34C124.204 215.64 125.544 215.29 127.024 215.29C128.304 215.29 129.494 215.59 130.594 216.19C131.694 216.77 132.534 217.54 133.114 218.5V209.8H135.874V232H133.114V228.91C132.574 229.89 131.774 230.7 130.714 231.34C129.654 231.96 128.414 232.27 126.994 232.27C125.534 232.27 124.204 231.91 123.004 231.19C121.824 230.47 120.894 229.46 120.214 228.16C119.534 226.86 119.194 225.38 119.194 223.72ZM133.114 223.75C133.114 222.51 132.864 221.43 132.364 220.51C131.864 219.59 131.184 218.89 130.324 218.41C129.484 217.91 128.554 217.66 127.534 217.66C126.514 217.66 125.584 217.9 124.744 218.38C123.904 218.86 123.234 219.56 122.734 220.48C122.234 221.4 121.984 222.48 121.984 223.72C121.984 224.98 122.234 226.08 122.734 227.02C123.234 227.94 123.904 228.65 124.744 229.15C125.584 229.63 126.514 229.87 127.534 229.87C128.554 229.87 129.484 229.63 130.324 229.15C131.184 228.65 131.864 227.94 132.364 227.02C132.864 226.08 133.114 224.99 133.114 223.75ZM141.898 212.89C141.378 212.89 140.938 212.71 140.578 212.35C140.218 211.99 140.038 211.55 140.038 211.03C140.038 210.51 140.218 210.07 140.578 209.71C140.938 209.35 141.378 209.17 141.898 209.17C142.398 209.17 142.818 209.35 143.158 209.71C143.518 210.07 143.698 210.51 143.698 211.03C143.698 211.55 143.518 211.99 143.158 212.35C142.818 212.71 142.398 212.89 141.898 212.89ZM143.218 215.56V232H140.488V215.56H143.218ZM162.871 223.15C162.871 223.67 162.841 224.22 162.781 224.8H149.641C149.741 226.42 150.291 227.69 151.291 228.61C152.311 229.51 153.541 229.96 154.981 229.96C156.161 229.96 157.141 229.69 157.921 229.15C158.721 228.59 159.281 227.85 159.601 226.93H162.541C162.101 228.51 161.221 229.8 159.901 230.8C158.581 231.78 156.941 232.27 154.981 232.27C153.421 232.27 152.021 231.92 150.781 231.22C149.561 230.52 148.601 229.53 147.901 228.25C147.201 226.95 146.851 225.45 146.851 223.75C146.851 222.05 147.191 220.56 147.871 219.28C148.551 218 149.501 217.02 150.721 216.34C151.961 215.64 153.381 215.29 154.981 215.29C156.541 215.29 157.921 215.63 159.121 216.31C160.321 216.99 161.241 217.93 161.881 219.13C162.541 220.31 162.871 221.65 162.871 223.15ZM160.051 222.58C160.051 221.54 159.821 220.65 159.361 219.91C158.901 219.15 158.271 218.58 157.471 218.2C156.691 217.8 155.821 217.6 154.861 217.6C153.481 217.6 152.301 218.04 151.321 218.92C150.361 219.8 149.811 221.02 149.671 222.58H160.051ZM172.294 232.27C171.034 232.27 169.904 232.06 168.904 231.64C167.904 231.2 167.114 230.6 166.534 229.84C165.954 229.06 165.634 228.17 165.574 227.17H168.394C168.474 227.99 168.854 228.66 169.534 229.18C170.234 229.7 171.144 229.96 172.264 229.96C173.304 229.96 174.124 229.73 174.724 229.27C175.324 228.81 175.624 228.23 175.624 227.53C175.624 226.81 175.304 226.28 174.664 225.94C174.024 225.58 173.034 225.23 171.694 224.89C170.474 224.57 169.474 224.25 168.694 223.93C167.934 223.59 167.274 223.1 166.714 222.46C166.174 221.8 165.904 220.94 165.904 219.88C165.904 219.04 166.154 218.27 166.654 217.57C167.154 216.87 167.864 216.32 168.784 215.92C169.704 215.5 170.754 215.29 171.934 215.29C173.754 215.29 175.224 215.75 176.344 216.67C177.464 217.59 178.064 218.85 178.144 220.45H175.414C175.354 219.59 175.004 218.9 174.364 218.38C173.744 217.86 172.904 217.6 171.844 217.6C170.864 217.6 170.084 217.81 169.504 218.23C168.924 218.65 168.634 219.2 168.634 219.88C168.634 220.42 168.804 220.87 169.144 221.23C169.504 221.57 169.944 221.85 170.464 222.07C171.004 222.27 171.744 222.5 172.684 222.76C173.864 223.08 174.824 223.4 175.564 223.72C176.304 224.02 176.934 224.48 177.454 225.1C177.994 225.72 178.274 226.53 178.294 227.53C178.294 228.43 178.044 229.24 177.544 229.96C177.044 230.68 176.334 231.25 175.414 231.67C174.514 232.07 173.474 232.27 172.294 232.27Z" fill="black"/>
</svg>
