<svg width="280" height="261" viewBox="0 0 280 261" fill="none" xmlns="http://www.w3.org/2000/svg">
<rect x="112.06" y="28.831" width="106.555" height="77.099" transform="rotate(20.8607 112.06 28.831)" fill="#C4C4C4" fill-opacity="0.27"/>
<rect x="115.137" y="41.0741" width="106.555" height="77.099" transform="rotate(20.8607 115.137 41.0741)" fill="#F6F6F6"/>
<path d="M187.253 151.063L200.98 115.041L214.708 79.018L115.137 41.0741L87.6828 113.119" stroke="black" stroke-width="3"/>
<rect x="104.825" y="88.7011" width="71.4227" height="4.42441" transform="rotate(20.8607 104.825 88.7011)" fill="#C4C4C4"/>
<rect x="99.5443" y="100.627" width="57.9742" height="4.42441" transform="rotate(20.8607 99.5443 100.627)" fill="#C4C4C4"/>
<path d="M125.19 68.8906C126.257 69.2972 127.421 69.3774 128.535 69.121C129.649 68.8645 130.663 68.283 131.448 67.45C132.233 66.617 132.754 65.5698 132.946 64.4409C133.138 63.312 132.991 62.1521 132.525 61.1079C132.059 60.0637 131.294 59.1821 130.327 58.5745C129.36 57.9669 128.234 57.6606 127.092 57.6945C125.951 57.7283 124.844 58.1007 123.912 58.7645C122.98 59.4284 122.265 60.3539 121.857 61.424C121.31 62.859 121.354 64.4518 121.979 65.8521C122.604 67.2523 123.759 68.3453 125.19 68.8906ZM124.601 70.4365C121.257 69.1621 113.792 68.6897 112.225 72.8017L111.047 75.8935L131.086 83.53L132.264 80.4382C133.831 76.3262 127.945 71.7108 124.601 70.4365Z" fill="black"/>
<path d="M41.29 187.21C41.29 188.95 40.69 190.4 39.49 191.56C38.31 192.7 36.5 193.27 34.06 193.27H30.04V202H27.31V181.09H34.06C36.42 181.09 38.21 181.66 39.43 182.8C40.67 183.94 41.29 185.41 41.29 187.21ZM34.06 191.02C35.58 191.02 36.7 190.69 37.42 190.03C38.14 189.37 38.5 188.43 38.5 187.21C38.5 184.63 37.02 183.34 34.06 183.34H30.04V191.02H34.06ZM47.413 188.23C47.893 187.29 48.573 186.56 49.453 186.04C50.353 185.52 51.443 185.26 52.723 185.26V188.08H52.003C48.943 188.08 47.413 189.74 47.413 193.06V202H44.683V185.56H47.413V188.23ZM70.8745 193.15C70.8745 193.67 70.8445 194.22 70.7845 194.8H57.6445C57.7445 196.42 58.2945 197.69 59.2945 198.61C60.3145 199.51 61.5445 199.96 62.9845 199.96C64.1645 199.96 65.1445 199.69 65.9245 199.15C66.7245 198.59 67.2845 197.85 67.6045 196.93H70.5445C70.1045 198.51 69.2245 199.8 67.9045 200.8C66.5845 201.78 64.9445 202.27 62.9845 202.27C61.4245 202.27 60.0245 201.92 58.7845 201.22C57.5645 200.52 56.6045 199.53 55.9045 198.25C55.2045 196.95 54.8545 195.45 54.8545 193.75C54.8545 192.05 55.1945 190.56 55.8745 189.28C56.5545 188 57.5045 187.02 58.7245 186.34C59.9645 185.64 61.3845 185.29 62.9845 185.29C64.5445 185.29 65.9245 185.63 67.1245 186.31C68.3245 186.99 69.2445 187.93 69.8845 189.13C70.5445 190.31 70.8745 191.65 70.8745 193.15ZM68.0545 192.58C68.0545 191.54 67.8245 190.65 67.3645 189.91C66.9045 189.15 66.2745 188.58 65.4745 188.2C64.6945 187.8 63.8245 187.6 62.8645 187.6C61.4845 187.6 60.3045 188.04 59.3245 188.92C58.3645 189.8 57.8145 191.02 57.6745 192.58H68.0545ZM80.298 202.27C79.038 202.27 77.908 202.06 76.908 201.64C75.908 201.2 75.118 200.6 74.538 199.84C73.958 199.06 73.638 198.17 73.578 197.17H76.398C76.478 197.99 76.858 198.66 77.538 199.18C78.238 199.7 79.148 199.96 80.268 199.96C81.308 199.96 82.128 199.73 82.728 199.27C83.328 198.81 83.628 198.23 83.628 197.53C83.628 196.81 83.308 196.28 82.668 195.94C82.028 195.58 81.038 195.23 79.698 194.89C78.478 194.57 77.478 194.25 76.698 193.93C75.938 193.59 75.278 193.1 74.718 192.46C74.178 191.8 73.908 190.94 73.908 189.88C73.908 189.04 74.158 188.27 74.658 187.57C75.158 186.87 75.868 186.32 76.788 185.92C77.708 185.5 78.758 185.29 79.938 185.29C81.758 185.29 83.228 185.75 84.348 186.67C85.468 187.59 86.068 188.85 86.148 190.45H83.418C83.358 189.59 83.008 188.9 82.368 188.38C81.748 187.86 80.908 187.6 79.848 187.6C78.868 187.6 78.088 187.81 77.508 188.23C76.928 188.65 76.638 189.2 76.638 189.88C76.638 190.42 76.808 190.87 77.148 191.23C77.508 191.57 77.948 191.85 78.468 192.07C79.008 192.27 79.748 192.5 80.688 192.76C81.868 193.08 82.828 193.4 83.568 193.72C84.308 194.02 84.938 194.48 85.458 195.1C85.998 195.72 86.278 196.53 86.298 197.53C86.298 198.43 86.048 199.24 85.548 199.96C85.048 200.68 84.338 201.25 83.418 201.67C82.518 202.07 81.478 202.27 80.298 202.27ZM105.152 193.15C105.152 193.67 105.122 194.22 105.062 194.8H91.9218C92.0218 196.42 92.5718 197.69 93.5718 198.61C94.5918 199.51 95.8218 199.96 97.2618 199.96C98.4418 199.96 99.4218 199.69 100.202 199.15C101.002 198.59 101.562 197.85 101.882 196.93H104.822C104.382 198.51 103.502 199.8 102.182 200.8C100.862 201.78 99.2218 202.27 97.2618 202.27C95.7018 202.27 94.3018 201.92 93.0618 201.22C91.8418 200.52 90.8818 199.53 90.1818 198.25C89.4818 196.95 89.1318 195.45 89.1318 193.75C89.1318 192.05 89.4718 190.56 90.1518 189.28C90.8318 188 91.7818 187.02 93.0018 186.34C94.2418 185.64 95.6618 185.29 97.2618 185.29C98.8218 185.29 100.202 185.63 101.402 186.31C102.602 186.99 103.522 187.93 104.162 189.13C104.822 190.31 105.152 191.65 105.152 193.15ZM102.332 192.58C102.332 191.54 102.102 190.65 101.642 189.91C101.182 189.15 100.552 188.58 99.7518 188.2C98.9718 187.8 98.1018 187.6 97.1418 187.6C95.7618 187.6 94.5818 188.04 93.6018 188.92C92.6418 189.8 92.0918 191.02 91.9518 192.58H102.332ZM116.765 185.26C118.765 185.26 120.385 185.87 121.625 187.09C122.865 188.29 123.485 190.03 123.485 192.31V202H120.785V192.7C120.785 191.06 120.375 189.81 119.555 188.95C118.735 188.07 117.615 187.63 116.195 187.63C114.755 187.63 113.605 188.08 112.745 188.98C111.905 189.88 111.485 191.19 111.485 192.91V202H108.755V185.56H111.485V187.9C112.025 187.06 112.755 186.41 113.675 185.95C114.615 185.49 115.645 185.26 116.765 185.26ZM131.275 187.81V197.5C131.275 198.3 131.445 198.87 131.785 199.21C132.125 199.53 132.715 199.69 133.555 199.69H135.565V202H133.105C131.585 202 130.445 201.65 129.685 200.95C128.925 200.25 128.545 199.1 128.545 197.5V187.81H126.415V185.56H128.545V181.42H131.275V185.56H135.565V187.81H131.275ZM137.853 193.72C137.853 192.04 138.193 190.57 138.873 189.31C139.553 188.03 140.483 187.04 141.663 186.34C142.863 185.64 144.193 185.29 145.653 185.29C147.093 185.29 148.343 185.6 149.403 186.22C150.463 186.84 151.253 187.62 151.773 188.56V185.56H154.533V202H151.773V198.94C151.233 199.9 150.423 200.7 149.343 201.34C148.283 201.96 147.043 202.27 145.623 202.27C144.163 202.27 142.843 201.91 141.663 201.19C140.483 200.47 139.553 199.46 138.873 198.16C138.193 196.86 137.853 195.38 137.853 193.72ZM151.773 193.75C151.773 192.51 151.523 191.43 151.023 190.51C150.523 189.59 149.843 188.89 148.983 188.41C148.143 187.91 147.213 187.66 146.193 187.66C145.173 187.66 144.243 187.9 143.403 188.38C142.563 188.86 141.893 189.56 141.393 190.48C140.893 191.4 140.643 192.48 140.643 193.72C140.643 194.98 140.893 196.08 141.393 197.02C141.893 197.94 142.563 198.65 143.403 199.15C144.243 199.63 145.173 199.87 146.193 199.87C147.213 199.87 148.143 199.63 148.983 199.15C149.843 198.65 150.523 197.94 151.023 197.02C151.523 196.08 151.773 194.99 151.773 193.75ZM162.476 187.81V197.5C162.476 198.3 162.646 198.87 162.986 199.21C163.326 199.53 163.916 199.69 164.756 199.69H166.766V202H164.306C162.786 202 161.646 201.65 160.886 200.95C160.126 200.25 159.746 199.1 159.746 197.5V187.81H157.616V185.56H159.746V181.42H162.476V185.56H166.766V187.81H162.476ZM171.484 182.89C170.964 182.89 170.524 182.71 170.164 182.35C169.804 181.99 169.624 181.55 169.624 181.03C169.624 180.51 169.804 180.07 170.164 179.71C170.524 179.35 170.964 179.17 171.484 179.17C171.984 179.17 172.404 179.35 172.744 179.71C173.104 180.07 173.284 180.51 173.284 181.03C173.284 181.55 173.104 181.99 172.744 182.35C172.404 182.71 171.984 182.89 171.484 182.89ZM172.804 185.56V202H170.074V185.56H172.804ZM184.626 202.27C183.086 202.27 181.686 201.92 180.426 201.22C179.186 200.52 178.206 199.53 177.486 198.25C176.786 196.95 176.436 195.45 176.436 193.75C176.436 192.07 176.796 190.59 177.516 189.31C178.256 188.01 179.256 187.02 180.516 186.34C181.776 185.64 183.186 185.29 184.746 185.29C186.306 185.29 187.716 185.64 188.976 186.34C190.236 187.02 191.226 188 191.946 189.28C192.686 190.56 193.056 192.05 193.056 193.75C193.056 195.45 192.676 196.95 191.916 198.25C191.176 199.53 190.166 200.52 188.886 201.22C187.606 201.92 186.186 202.27 184.626 202.27ZM184.626 199.87C185.606 199.87 186.526 199.64 187.386 199.18C188.246 198.72 188.936 198.03 189.456 197.11C189.996 196.19 190.266 195.07 190.266 193.75C190.266 192.43 190.006 191.31 189.486 190.39C188.966 189.47 188.286 188.79 187.446 188.35C186.606 187.89 185.696 187.66 184.716 187.66C183.716 187.66 182.796 187.89 181.956 188.35C181.136 188.79 180.476 189.47 179.976 190.39C179.476 191.31 179.226 192.43 179.226 193.75C179.226 195.09 179.466 196.22 179.946 197.14C180.446 198.06 181.106 198.75 181.926 199.21C182.746 199.65 183.646 199.87 184.626 199.87ZM204.656 185.26C206.656 185.26 208.276 185.87 209.516 187.09C210.756 188.29 211.376 190.03 211.376 192.31V202H208.676V192.7C208.676 191.06 208.266 189.81 207.446 188.95C206.626 188.07 205.506 187.63 204.086 187.63C202.646 187.63 201.496 188.08 200.636 188.98C199.796 189.88 199.376 191.19 199.376 192.91V202H196.646V185.56H199.376V187.9C199.916 187.06 200.646 186.41 201.566 185.95C202.506 185.49 203.536 185.26 204.656 185.26ZM26.29 221.53C26.29 219.49 26.75 217.66 27.67 216.04C28.59 214.4 29.84 213.12 31.42 212.2C33.02 211.28 34.79 210.82 36.73 210.82C39.01 210.82 41 211.37 42.7 212.47C44.4 213.57 45.64 215.13 46.42 217.15H43.15C42.57 215.89 41.73 214.92 40.63 214.24C39.55 213.56 38.25 213.22 36.73 213.22C35.27 213.22 33.96 213.56 32.8 214.24C31.64 214.92 30.73 215.89 30.07 217.15C29.41 218.39 29.08 219.85 29.08 221.53C29.08 223.19 29.41 224.65 30.07 225.91C30.73 227.15 31.64 228.11 32.8 228.79C33.96 229.47 35.27 229.81 36.73 229.81C38.25 229.81 39.55 229.48 40.63 228.82C41.73 228.14 42.57 227.17 43.15 225.91H46.42C45.64 227.91 44.4 229.46 42.7 230.56C41 231.64 39.01 232.18 36.73 232.18C34.79 232.18 33.02 231.73 31.42 230.83C29.84 229.91 28.59 228.64 27.67 227.02C26.75 225.4 26.29 223.57 26.29 221.53ZM49.4638 223.72C49.4638 222.04 49.8038 220.57 50.4838 219.31C51.1638 218.03 52.0938 217.04 53.2738 216.34C54.4738 215.64 55.8038 215.29 57.2638 215.29C58.7038 215.29 59.9538 215.6 61.0138 216.22C62.0738 216.84 62.8638 217.62 63.3838 218.56V215.56H66.1438V232H63.3838V228.94C62.8438 229.9 62.0338 230.7 60.9538 231.34C59.8938 231.96 58.6538 232.27 57.2338 232.27C55.7738 232.27 54.4538 231.91 53.2738 231.19C52.0938 230.47 51.1638 229.46 50.4838 228.16C49.8038 226.86 49.4638 225.38 49.4638 223.72ZM63.3838 223.75C63.3838 222.51 63.1338 221.43 62.6338 220.51C62.1338 219.59 61.4538 218.89 60.5938 218.41C59.7538 217.91 58.8238 217.66 57.8038 217.66C56.7838 217.66 55.8538 217.9 55.0138 218.38C54.1738 218.86 53.5038 219.56 53.0038 220.48C52.5038 221.4 52.2538 222.48 52.2538 223.72C52.2538 224.98 52.5038 226.08 53.0038 227.02C53.5038 227.94 54.1738 228.65 55.0138 229.15C55.8538 229.63 56.7838 229.87 57.8038 229.87C58.8238 229.87 59.7538 229.63 60.5938 229.15C61.4538 228.65 62.1338 227.94 62.6338 227.02C63.1338 226.08 63.3838 224.99 63.3838 223.75ZM73.4873 218.23C73.9673 217.29 74.6473 216.56 75.5273 216.04C76.4273 215.52 77.5173 215.26 78.7973 215.26V218.08H78.0773C75.0173 218.08 73.4873 219.74 73.4873 223.06V232H70.7573V215.56H73.4873V218.23ZM80.9287 223.72C80.9287 222.04 81.2687 220.57 81.9487 219.31C82.6287 218.03 83.5587 217.04 84.7387 216.34C85.9387 215.64 87.2787 215.29 88.7587 215.29C90.0387 215.29 91.2287 215.59 92.3287 216.19C93.4287 216.77 94.2687 217.54 94.8487 218.5V209.8H97.6087V232H94.8487V228.91C94.3087 229.89 93.5087 230.7 92.4487 231.34C91.3887 231.96 90.1487 232.27 88.7287 232.27C87.2687 232.27 85.9387 231.91 84.7387 231.19C83.5587 230.47 82.6287 229.46 81.9487 228.16C81.2687 226.86 80.9287 225.38 80.9287 223.72ZM94.8487 223.75C94.8487 222.51 94.5987 221.43 94.0987 220.51C93.5987 219.59 92.9187 218.89 92.0587 218.41C91.2187 217.91 90.2887 217.66 89.2687 217.66C88.2487 217.66 87.3187 217.9 86.4787 218.38C85.6387 218.86 84.9687 219.56 84.4687 220.48C83.9687 221.4 83.7187 222.48 83.7187 223.72C83.7187 224.98 83.9687 226.08 84.4687 227.02C84.9687 227.94 85.6387 228.65 86.4787 229.15C87.3187 229.63 88.2487 229.87 89.2687 229.87C90.2887 229.87 91.2187 229.63 92.0587 229.15C92.9187 228.65 93.5987 227.94 94.0987 227.02C94.5987 226.08 94.8487 224.99 94.8487 223.75Z" fill="black"/>
<path d="M247.344 222.5C247.344 213.75 240.25 206.656 231.5 206.656C222.75 206.656 215.656 213.75 215.656 222.5C215.656 231.25 222.75 238.344 231.5 238.344C240.25 238.344 247.344 231.25 247.344 222.5ZM231.146 229.459C231.032 229.346 230.942 229.212 230.88 229.065C230.818 228.917 230.786 228.759 230.785 228.599C230.785 228.439 230.816 228.28 230.876 228.132C230.937 227.984 231.026 227.849 231.139 227.735L235.124 223.719H224.949C224.626 223.719 224.316 223.59 224.087 223.362C223.859 223.133 223.73 222.823 223.73 222.5C223.73 222.177 223.859 221.867 224.087 221.638C224.316 221.41 224.626 221.281 224.949 221.281H235.124L231.139 217.265C231.026 217.151 230.937 217.016 230.876 216.868C230.816 216.72 230.785 216.561 230.786 216.401C230.786 216.241 230.819 216.082 230.88 215.935C230.942 215.787 231.033 215.653 231.147 215.54C231.26 215.427 231.395 215.338 231.543 215.278C231.692 215.217 231.85 215.186 232.01 215.187C232.334 215.188 232.643 215.318 232.871 215.548L238.918 221.642C239.145 221.87 239.272 222.178 239.272 222.5C239.272 222.822 239.145 223.13 238.918 223.358L232.871 229.452C232.758 229.566 232.624 229.657 232.476 229.719C232.329 229.781 232.17 229.813 232.01 229.813C231.85 229.814 231.691 229.783 231.543 229.722C231.394 229.662 231.259 229.572 231.146 229.459Z" fill="black"/>
</svg>
