<svg width="280" height="261" viewBox="0 0 280 261" fill="none" xmlns="http://www.w3.org/2000/svg">
<rect x="80.4902" y="62.8077" width="90.3799" height="118.584" transform="rotate(-30 80.4902 62.8077)" fill="#F7F7F7"/>
<path d="M220.751 110.696L161.459 8L83.1878 53.1899L142.48 155.886" stroke="black" stroke-width="3"/>
<rect x="133.052" y="44.5394" width="28.2036" height="28.2036" transform="rotate(-30 133.052 44.5394)" fill="#C4C4C4"/>
<rect x="109.976" y="66.5889" width="22.3054" height="3.54859" transform="rotate(-30 109.976 66.5889)" fill="#C4C4C4"/>
<rect x="126.198" y="94.6865" width="57.2844" height="3.54859" transform="rotate(-30 126.198 94.6865)" fill="#C4C4C4"/>
<rect x="132.788" y="106.101" width="57.2844" height="3.54859" transform="rotate(-30 132.788 106.101)" fill="#C4C4C4"/>
<rect x="139.378" y="117.516" width="57.2844" height="3.54859" transform="rotate(-30 139.378 117.516)" fill="#C4C4C4"/>
<rect x="166.603" y="117.017" width="33.9651" height="3.54859" transform="rotate(-30 166.603 117.017)" fill="#C4C4C4"/>
<path d="M26.29 189.53C26.29 187.49 26.75 185.66 27.67 184.04C28.59 182.4 29.84 181.12 31.42 180.2C33.02 179.28 34.79 178.82 36.73 178.82C39.01 178.82 41 179.37 42.7 180.47C44.4 181.57 45.64 183.13 46.42 185.15H43.15C42.57 183.89 41.73 182.92 40.63 182.24C39.55 181.56 38.25 181.22 36.73 181.22C35.27 181.22 33.96 181.56 32.8 182.24C31.64 182.92 30.73 183.89 30.07 185.15C29.41 186.39 29.08 187.85 29.08 189.53C29.08 191.19 29.41 192.65 30.07 193.91C30.73 195.15 31.64 196.11 32.8 196.79C33.96 197.47 35.27 197.81 36.73 197.81C38.25 197.81 39.55 197.48 40.63 196.82C41.73 196.14 42.57 195.17 43.15 193.91H46.42C45.64 195.91 44.4 197.46 42.7 198.56C41 199.64 39.01 200.18 36.73 200.18C34.79 200.18 33.02 199.73 31.42 198.83C29.84 197.91 28.59 196.64 27.67 195.02C26.75 193.4 26.29 191.57 26.29 189.53ZM65.0638 183.56V200H62.3338V197.57C61.8138 198.41 61.0838 199.07 60.1438 199.55C59.2238 200.01 58.2038 200.24 57.0838 200.24C55.8038 200.24 54.6538 199.98 53.6338 199.46C52.6138 198.92 51.8038 198.12 51.2038 197.06C50.6238 196 50.3338 194.71 50.3338 193.19V183.56H53.0338V192.83C53.0338 194.45 53.4438 195.7 54.2638 196.58C55.0838 197.44 56.2038 197.87 57.6238 197.87C59.0838 197.87 60.2338 197.42 61.0738 196.52C61.9138 195.62 62.3338 194.31 62.3338 192.59V183.56H65.0638ZM72.4033 186.23C72.8833 185.29 73.5633 184.56 74.4433 184.04C75.3433 183.52 76.4333 183.26 77.7133 183.26V186.08H76.9933C73.9333 186.08 72.4033 187.74 72.4033 191.06V200H69.6733V183.56H72.4033V186.23ZM83.5947 186.23C84.0747 185.29 84.7547 184.56 85.6347 184.04C86.5347 183.52 87.6247 183.26 88.9047 183.26V186.08H88.1847C85.1247 186.08 83.5947 187.74 83.5947 191.06V200H80.8647V183.56H83.5947V186.23ZM93.4661 180.89C92.9461 180.89 92.5061 180.71 92.1461 180.35C91.7861 179.99 91.6061 179.55 91.6061 179.03C91.6061 178.51 91.7861 178.07 92.1461 177.71C92.5061 177.35 92.9461 177.17 93.4661 177.17C93.9661 177.17 94.3861 177.35 94.7261 177.71C95.0861 178.07 95.2661 178.51 95.2661 179.03C95.2661 179.55 95.0861 179.99 94.7261 180.35C94.3861 180.71 93.9661 180.89 93.4661 180.89ZM94.7861 183.56V200H92.0561V183.56H94.7861ZM98.4189 191.75C98.4189 190.05 98.7589 188.57 99.4389 187.31C100.119 186.03 101.059 185.04 102.259 184.34C103.479 183.64 104.869 183.29 106.429 183.29C108.449 183.29 110.109 183.78 111.409 184.76C112.729 185.74 113.599 187.1 114.019 188.84H111.079C110.799 187.84 110.249 187.05 109.429 186.47C108.629 185.89 107.629 185.6 106.429 185.6C104.869 185.6 103.609 186.14 102.649 187.22C101.689 188.28 101.209 189.79 101.209 191.75C101.209 193.73 101.689 195.26 102.649 196.34C103.609 197.42 104.869 197.96 106.429 197.96C107.629 197.96 108.629 197.68 109.429 197.12C110.229 196.56 110.779 195.76 111.079 194.72H114.019C113.579 196.4 112.699 197.75 111.379 198.77C110.059 199.77 108.409 200.27 106.429 200.27C104.869 200.27 103.479 199.92 102.259 199.22C101.059 198.52 100.119 197.53 99.4389 196.25C98.7589 194.97 98.4189 193.47 98.4189 191.75ZM132.242 183.56V200H129.512V197.57C128.992 198.41 128.262 199.07 127.322 199.55C126.402 200.01 125.382 200.24 124.262 200.24C122.982 200.24 121.832 199.98 120.812 199.46C119.792 198.92 118.982 198.12 118.382 197.06C117.802 196 117.512 194.71 117.512 193.19V183.56H120.212V192.83C120.212 194.45 120.622 195.7 121.442 196.58C122.262 197.44 123.382 197.87 124.802 197.87C126.262 197.87 127.412 197.42 128.252 196.52C129.092 195.62 129.512 194.31 129.512 192.59V183.56H132.242ZM139.581 177.8V200H136.851V177.8H139.581ZM158.814 183.56V200H156.084V197.57C155.564 198.41 154.834 199.07 153.894 199.55C152.974 200.01 151.954 200.24 150.834 200.24C149.554 200.24 148.404 199.98 147.384 199.46C146.364 198.92 145.554 198.12 144.954 197.06C144.374 196 144.084 194.71 144.084 193.19V183.56H146.784V192.83C146.784 194.45 147.194 195.7 148.014 196.58C148.834 197.44 149.954 197.87 151.374 197.87C152.834 197.87 153.984 197.42 154.824 196.52C155.664 195.62 156.084 194.31 156.084 192.59V183.56H158.814ZM183.193 183.26C184.473 183.26 185.613 183.53 186.613 184.07C187.613 184.59 188.403 185.38 188.983 186.44C189.563 187.5 189.853 188.79 189.853 190.31V200H187.153V190.7C187.153 189.06 186.743 187.81 185.923 186.95C185.123 186.07 184.033 185.63 182.653 185.63C181.233 185.63 180.103 186.09 179.263 187.01C178.423 187.91 178.003 189.22 178.003 190.94V200H175.303V190.7C175.303 189.06 174.893 187.81 174.073 186.95C173.273 186.07 172.183 185.63 170.803 185.63C169.383 185.63 168.253 186.09 167.413 187.01C166.573 187.91 166.153 189.22 166.153 190.94V200H163.423V183.56H166.153V185.93C166.693 185.07 167.413 184.41 168.313 183.95C169.233 183.49 170.243 183.26 171.343 183.26C172.723 183.26 173.943 183.57 175.003 184.19C176.063 184.81 176.853 185.72 177.373 186.92C177.833 185.76 178.593 184.86 179.653 184.22C180.713 183.58 181.893 183.26 183.193 183.26ZM44.59 209.09L36.7 230H33.55L25.66 209.09H28.57L35.14 227.12L41.71 209.09H44.59ZM48.9934 210.89C48.4734 210.89 48.0334 210.71 47.6734 210.35C47.3134 209.99 47.1334 209.55 47.1334 209.03C47.1334 208.51 47.3134 208.07 47.6734 207.71C48.0334 207.35 48.4734 207.17 48.9934 207.17C49.4934 207.17 49.9134 207.35 50.2534 207.71C50.6134 208.07 50.7934 208.51 50.7934 209.03C50.7934 209.55 50.6134 209.99 50.2534 210.35C49.9134 210.71 49.4934 210.89 48.9934 210.89ZM50.3134 213.56V230H47.5834V213.56H50.3134ZM58.2963 215.81V225.5C58.2963 226.3 58.4663 226.87 58.8063 227.21C59.1463 227.53 59.7363 227.69 60.5762 227.69H62.5863V230H60.1263C58.6063 230 57.4663 229.65 56.7063 228.95C55.9463 228.25 55.5663 227.1 55.5663 225.5V215.81H53.4363V213.56H55.5663V209.42H58.2963V213.56H62.5863V215.81H58.2963ZM64.874 221.72C64.874 220.04 65.214 218.57 65.894 217.31C66.574 216.03 67.504 215.04 68.684 214.34C69.884 213.64 71.214 213.29 72.674 213.29C74.114 213.29 75.364 213.6 76.424 214.22C77.484 214.84 78.274 215.62 78.794 216.56V213.56H81.554V230H78.794V226.94C78.254 227.9 77.444 228.7 76.364 229.34C75.304 229.96 74.064 230.27 72.644 230.27C71.184 230.27 69.864 229.91 68.684 229.19C67.504 228.47 66.574 227.46 65.894 226.16C65.214 224.86 64.874 223.38 64.874 221.72ZM78.794 221.75C78.794 220.51 78.544 219.43 78.044 218.51C77.544 217.59 76.864 216.89 76.004 216.41C75.164 215.91 74.234 215.66 73.214 215.66C72.194 215.66 71.264 215.9 70.424 216.38C69.584 216.86 68.914 217.56 68.414 218.48C67.914 219.4 67.664 220.48 67.664 221.72C67.664 222.98 67.914 224.08 68.414 225.02C68.914 225.94 69.584 226.65 70.424 227.15C71.264 227.63 72.194 227.87 73.214 227.87C74.234 227.87 75.164 227.63 76.004 227.15C76.864 226.65 77.544 225.94 78.044 225.02C78.544 224.08 78.794 222.99 78.794 221.75ZM101.167 221.15C101.167 221.67 101.137 222.22 101.077 222.8H87.9374C88.0374 224.42 88.5874 225.69 89.5874 226.61C90.6074 227.51 91.8374 227.96 93.2774 227.96C94.4574 227.96 95.4374 227.69 96.2174 227.15C97.0174 226.59 97.5774 225.85 97.8974 224.93H100.837C100.397 226.51 99.5174 227.8 98.1974 228.8C96.8774 229.78 95.2374 230.27 93.2774 230.27C91.7174 230.27 90.3174 229.92 89.0774 229.22C87.8574 228.52 86.8974 227.53 86.1974 226.25C85.4974 224.95 85.1474 223.45 85.1474 221.75C85.1474 220.05 85.4874 218.56 86.1674 217.28C86.8474 216 87.7974 215.02 89.0174 214.34C90.2574 213.64 91.6774 213.29 93.2774 213.29C94.8374 213.29 96.2174 213.63 97.4174 214.31C98.6174 214.99 99.5374 215.93 100.177 217.13C100.837 218.31 101.167 219.65 101.167 221.15ZM98.3474 220.58C98.3474 219.54 98.1174 218.65 97.6574 217.91C97.1974 217.15 96.5674 216.58 95.7674 216.2C94.9874 215.8 94.1174 215.6 93.1574 215.6C91.7774 215.6 90.5974 216.04 89.6174 216.92C88.6574 217.8 88.1074 219.02 87.9674 220.58H98.3474Z" fill="black"/>
<path d="M245.344 222.5C245.344 213.75 238.25 206.656 229.5 206.656C220.75 206.656 213.656 213.75 213.656 222.5C213.656 231.25 220.75 238.344 229.5 238.344C238.25 238.344 245.344 231.25 245.344 222.5ZM229.146 229.459C229.032 229.346 228.942 229.212 228.88 229.065C228.818 228.917 228.786 228.759 228.785 228.599C228.785 228.439 228.816 228.28 228.876 228.132C228.937 227.984 229.026 227.849 229.139 227.735L233.124 223.719H222.949C222.626 223.719 222.316 223.59 222.087 223.362C221.859 223.133 221.73 222.823 221.73 222.5C221.73 222.177 221.859 221.867 222.087 221.638C222.316 221.41 222.626 221.281 222.949 221.281H233.124L229.139 217.265C229.026 217.151 228.937 217.016 228.876 216.868C228.816 216.72 228.785 216.561 228.786 216.401C228.786 216.241 228.819 216.082 228.88 215.935C228.942 215.787 229.033 215.653 229.147 215.54C229.26 215.427 229.395 215.338 229.543 215.278C229.692 215.217 229.85 215.186 230.01 215.187C230.334 215.188 230.643 215.318 230.871 215.548L236.918 221.642C237.145 221.87 237.272 222.178 237.272 222.5C237.272 222.822 237.145 223.13 236.918 223.358L230.871 229.452C230.758 229.566 230.624 229.657 230.476 229.719C230.329 229.781 230.17 229.813 230.01 229.813C229.85 229.814 229.691 229.783 229.543 229.722C229.394 229.662 229.259 229.572 229.146 229.459Z" fill="black"/>
</svg>
