<svg width="392" height="457" viewBox="0 0 392 457" fill="none" xmlns="http://www.w3.org/2000/svg">
<path d="M131.669 589.223C131.685 589.224 138.364 590.097 149.724 590.565C177.611 591.713 233.671 590.438 288.784 567.933C343.89 545.433 398.046 501.63 421.891 417.857C447.489 327.962 484.137 263.053 529.617 221.261C575.097 179.476 629.399 160.763 690.46 163.276C714.781 164.278 740.171 168.646 766.499 176.275L766.808 175.204C740.408 167.556 714.929 163.167 690.506 162.161C629.191 159.631 574.541 178.454 528.861 220.44C483.176 262.426 446.451 327.53 420.82 417.553C397.057 500.98 343.242 544.476 288.364 566.9C233.486 589.319 177.555 590.599 149.77 589.45C144.104 589.216 139.61 588.885 136.535 588.611C135.006 588.469 133.815 588.347 133.023 588.258C132.22 588.174 131.816 588.118 131.816 588.118L131.669 589.223Z" stroke="black" stroke-width="3"/>
<path d="M116.407 568.475C116.418 568.476 122.542 569.247 133.007 569.678C160.015 570.79 216.02 569.642 271.221 547.169C326.417 524.701 380.823 480.84 404.437 396.652C429.656 306.769 466.149 241.662 511.812 199.675C557.48 157.694 612.32 138.8 674.407 141.35C699.545 142.385 725.869 146.939 753.243 154.915L753.552 153.845C726.106 145.848 699.692 141.274 674.453 140.235C612.118 137.669 556.93 156.678 511.056 198.854C465.187 241.035 428.618 306.337 403.366 396.348C379.829 480.184 325.768 523.744 270.801 546.136C215.834 568.523 159.976 569.677 133.053 568.563C127.837 568.348 123.703 568.048 120.881 567.802C119.47 567.682 118.391 567.575 117.661 567.494C116.925 567.413 116.554 567.37 116.554 567.37L116.407 568.475Z" stroke="black" stroke-width="3"/>
<path d="M31.0489 518.73C31.0489 518.73 36.6237 519.406 46.2158 519.8C72.311 520.875 128.237 519.86 183.527 497.424C238.817 474.988 293.486 431.065 316.875 346.444C341.721 256.568 378.053 191.262 423.904 149.086C469.761 106.915 525.139 87.8346 588.234 90.4266C614.188 91.4951 641.447 96.2339 669.879 104.553L670.188 103.488C641.684 95.1435 614.336 90.3841 588.28 89.3114C524.932 86.6977 469.211 105.894 423.154 148.265C377.091 190.636 340.683 256.142 315.798 346.146C292.491 430.409 238.168 474.031 183.107 496.391C128.052 518.741 72.2722 519.762 46.2614 518.691C41.4851 518.494 37.716 518.226 35.1353 518.007C33.8422 517.897 32.8475 517.8 32.1902 517.734C31.5105 517.66 31.1793 517.619 31.1793 517.619L31.0489 518.73Z" stroke="black" stroke-width="3"/>
<path d="M101.711 559.531C101.722 559.532 106.753 560.123 115.495 560.482C140.627 561.511 196.463 560.639 251.848 538.23C307.232 515.838 362.185 471.841 385.344 386.782C409.818 296.914 445.995 231.404 492.034 189.038C538.08 146.672 593.984 127.41 658.082 130.043C684.853 131.145 713.052 136.075 742.547 144.742L742.856 143.672C713.289 134.979 685 130.034 658.128 128.928C593.782 126.279 537.529 145.651 491.278 188.217C445.027 230.778 408.78 296.487 384.267 386.49C361.191 471.191 306.589 514.875 251.433 537.197C196.278 559.515 140.583 560.398 115.541 559.367C111.181 559.188 107.755 558.951 105.422 558.759C104.246 558.66 103.353 558.578 102.746 558.519C102.145 558.455 101.842 558.42 101.842 558.42L101.711 559.531Z" stroke="black" stroke-width="3"/>
<path d="M166.385 608.193C166.402 608.194 170.917 608.707 178.819 609.032C202.938 610.025 258.677 609.285 314.168 586.919C369.652 564.565 424.901 520.507 447.825 434.993C471.932 345.115 507.954 279.401 554.182 236.846C600.415 194.295 656.846 174.852 721.935 177.526C749.523 178.662 778.662 183.777 809.226 192.793L809.547 191.729C778.899 182.681 749.67 177.551 721.981 176.411C656.645 173.715 599.865 193.269 553.426 236.025C506.992 278.781 470.895 344.694 446.748 434.706C423.901 519.857 369.009 563.602 313.748 585.886C258.492 608.166 202.899 608.912 178.865 607.917C174.928 607.755 171.828 607.548 169.731 607.378C168.679 607.295 167.869 607.222 167.341 607.172C166.791 607.115 166.521 607.087 166.521 607.087L166.385 608.193Z" stroke="black" stroke-width="3"/>
<path d="M87.0154 550.582C87.0154 550.582 91.0259 551.018 98.1059 551.309C121.177 552.259 176.808 551.672 232.399 529.344C287.989 507.028 343.545 462.904 366.246 376.918C389.987 287.031 425.853 221.119 472.269 178.373C518.686 135.628 575.637 116.008 641.718 118.723C670.116 119.892 700.202 125.193 731.845 134.569L732.166 133.499C700.444 124.103 670.269 118.781 641.763 117.608C575.441 114.872 518.135 134.606 471.513 177.552C424.886 220.498 388.943 286.615 365.168 376.637C342.551 462.248 287.346 506.06 231.985 528.306C176.623 550.547 121.132 551.146 98.1516 550.2C94.6313 550.055 91.8688 549.868 89.9957 549.728C88.1229 549.584 87.1289 549.469 87.1287 549.475L87.0154 550.582Z" stroke="black" stroke-width="3"/>
<path d="M22.8143 487.196C22.8312 487.197 26.3537 487.562 32.6395 487.821C54.5837 488.724 110.114 488.285 165.804 466.001C221.499 443.729 277.391 399.54 299.857 313.076C323.227 223.167 358.949 157.052 405.548 114.117C452.147 71.1868 509.625 51.3857 576.68 54.1407C605.896 55.3435 636.926 60.8356 669.661 70.573L669.976 69.5026C637.169 59.7454 606.048 54.2383 576.726 53.0311C509.429 50.2549 451.603 70.1601 404.792 113.296C357.982 156.431 322.183 222.758 298.78 312.794C276.391 398.889 220.856 442.766 165.389 464.969C109.928 487.166 54.5448 487.611 32.6852 486.711C29.5592 486.583 27.1227 486.426 25.4521 486.301C23.7985 486.176 22.9334 486.084 22.9334 486.084L22.8143 487.196Z" stroke="black" stroke-width="3"/>
<path d="M65.7893 533.768C65.8006 533.768 68.8798 534.076 74.3883 534.303C95.1555 535.152 150.543 534.871 206.356 512.637C262.162 490.409 318.401 446.149 340.64 359.185C363.643 269.261 399.216 202.937 445.998 159.812C492.785 116.692 550.778 96.7201 618.801 99.515C648.834 100.751 680.816 106.435 714.636 116.527L714.956 115.457C681.064 105.339 648.986 99.6462 618.847 98.4054C550.587 95.5895 492.241 115.665 445.242 158.996C398.248 202.322 362.6 268.846 339.557 358.909C317.396 445.498 261.519 489.44 205.941 511.599C150.37 533.746 95.111 534.039 74.4342 533.187C71.6969 533.075 69.5471 532.941 68.1071 532.837C66.6557 532.732 65.9085 532.656 65.9085 532.656L65.7896 533.762L65.7893 533.768Z" stroke="black" stroke-width="3"/>
<path d="M5.81124 460.517C5.81124 460.517 8.4581 460.773 13.2175 460.968C32.7568 461.767 88.0083 461.65 143.92 439.46C199.843 417.281 256.446 372.952 278.458 285.476C301.095 195.526 336.524 128.999 383.489 85.6889C430.459 42.3793 488.972 22.2372 557.953 25.0715C588.796 26.3413 621.735 32.211 656.652 42.6701L656.973 41.6C621.978 31.1208 588.955 25.2307 557.999 23.9562C488.776 21.1007 429.914 41.3526 382.733 84.8679C335.551 128.383 300.052 195.117 277.374 285.206C255.446 372.302 199.2 416.313 143.511 438.427C87.8233 460.525 32.7011 460.654 13.2635 459.853C10.8978 459.756 9.05176 459.646 7.80297 459.555C6.56522 459.47 5.91325 459.41 5.91325 459.41L5.81124 460.517Z" stroke="black" stroke-width="3"/>
</svg>
