<svg width="567" height="394" viewBox="0 0 567 394" fill="none" xmlns="http://www.w3.org/2000/svg">
<path d="M-118.331 347.224C-118.314 347.224 -111.636 348.097 -100.276 348.565C-72.3894 349.713 -16.3286 348.438 38.7839 325.933C93.8905 303.433 148.046 259.63 171.891 175.857C197.489 85.9616 234.137 21.0526 279.617 -20.7386C325.097 -62.5241 379.399 -81.2373 440.46 -78.7234C464.781 -77.7221 490.171 -73.3537 516.499 -65.725L516.808 -66.7956C490.408 -74.4441 464.929 -78.8332 440.506 -79.8386C379.191 -82.3686 324.541 -63.5456 278.861 -21.5596C233.176 20.4263 196.451 85.5296 170.82 175.553C147.057 258.98 93.2416 302.476 38.3638 324.9C-16.5138 347.319 -72.4451 348.599 -100.23 347.45C-105.896 347.216 -110.39 346.885 -113.465 346.611C-114.994 346.469 -116.185 346.347 -116.977 346.258C-117.78 346.174 -118.184 346.118 -118.184 346.118L-118.331 347.224Z" stroke="black" stroke-width="3"/>
<path d="M-133.593 326.475C-133.582 326.476 -127.458 327.247 -116.993 327.678C-89.9851 328.79 -33.9803 327.642 21.2211 305.169C76.4167 282.701 130.823 238.84 154.437 154.652C179.656 64.769 216.149 -0.338204 261.812 -42.325C307.48 -84.3058 362.32 -103.2 424.407 -100.65C449.544 -99.6147 475.869 -95.061 503.243 -87.0847L503.552 -88.1552C476.106 -96.1515 449.692 -100.726 424.453 -101.765C362.118 -104.331 306.93 -85.3215 261.056 -43.146C215.187 -0.964562 178.618 64.337 153.366 154.348C129.829 238.184 75.7678 281.744 20.801 304.136C-34.1656 326.523 -90.0239 327.677 -116.947 326.563C-122.163 326.348 -126.297 326.048 -129.119 325.802C-130.53 325.682 -131.609 325.575 -132.339 325.494C-133.075 325.413 -133.446 325.37 -133.446 325.37L-133.593 326.475Z" stroke="black" stroke-width="3"/>
<path d="M-218.951 276.73C-218.951 276.73 -213.376 277.406 -203.784 277.801C-177.689 278.875 -121.763 277.86 -66.4728 255.424C-11.1827 232.988 43.4857 189.065 66.8746 104.444C91.721 14.5683 128.053 -50.7374 173.904 -92.9139C219.761 -135.085 275.139 -154.165 338.234 -151.573C364.188 -150.505 391.447 -145.766 419.879 -137.447L420.188 -138.512C391.684 -146.856 364.336 -151.616 338.28 -152.689C274.932 -155.302 219.211 -136.106 173.154 -93.7347C127.091 -51.3638 90.6835 14.1419 65.7979 104.146C42.4915 188.409 -11.8316 232.031 -66.893 254.391C-121.948 276.741 -177.728 277.762 -203.739 276.691C-208.515 276.494 -212.284 276.226 -214.865 276.007C-216.158 275.898 -217.152 275.8 -217.81 275.734C-218.489 275.661 -218.821 275.619 -218.821 275.619L-218.951 276.73Z" stroke="black" stroke-width="3"/>
<path d="M-148.289 317.531C-148.278 317.532 -143.247 318.123 -134.505 318.483C-109.373 319.512 -53.5373 318.639 1.84771 296.23C57.232 273.838 112.185 229.841 135.344 144.782C159.818 54.9138 195.995 -10.5958 242.034 -52.9619C288.08 -95.3279 343.984 -114.59 408.082 -111.957C434.853 -110.855 463.052 -105.925 492.547 -97.2575L492.856 -98.328C463.289 -107.021 435 -111.966 408.128 -113.072C343.782 -115.721 287.529 -96.3492 241.278 -53.783C195.027 -11.2224 158.78 54.4874 134.267 144.49C111.191 229.191 56.589 272.875 1.43322 295.198C-53.7223 317.515 -109.417 318.398 -134.459 317.367C-138.819 317.188 -142.245 316.951 -144.578 316.759C-145.754 316.66 -146.647 316.578 -147.254 316.519C-147.855 316.455 -148.158 316.42 -148.158 316.42L-148.289 317.531Z" stroke="black" stroke-width="3"/>
<path d="M-83.6149 366.193C-83.598 366.194 -79.083 366.707 -71.1806 367.033C-47.0624 368.025 8.67742 367.285 64.1678 344.919C119.652 322.565 174.901 278.507 197.825 192.993C221.932 103.115 257.954 37.4015 304.182 -5.15438C350.415 -47.7044 406.846 -67.1481 471.935 -64.474C499.523 -63.3382 528.662 -58.223 559.226 -49.2069L559.547 -50.2714C528.899 -59.3191 499.67 -64.4493 471.981 -65.5893C406.645 -68.2848 349.865 -48.7314 303.426 -5.97539C256.992 36.7808 220.895 102.694 196.748 192.706C173.901 277.857 119.009 321.602 63.7477 343.887C8.49217 366.166 -47.1012 366.912 -71.1347 365.917C-75.0718 365.755 -78.172 365.549 -80.2695 365.378C-81.3211 365.295 -82.1306 365.222 -82.6589 365.172C-83.2094 365.116 -83.4791 365.087 -83.4791 365.087L-83.6149 366.193Z" stroke="black" stroke-width="3"/>
<path d="M-162.985 308.582C-162.985 308.582 -158.974 309.018 -151.894 309.309C-128.823 310.259 -73.1916 309.672 -17.6012 287.344C37.9887 265.028 93.5455 220.904 116.246 134.918C139.987 45.0307 175.853 -20.881 222.269 -63.6266C268.686 -106.372 325.637 -125.992 391.718 -123.277C420.116 -122.108 450.202 -116.807 481.845 -107.431L482.166 -108.501C450.444 -117.897 420.269 -123.219 391.763 -124.392C325.441 -127.128 268.135 -107.394 221.513 -64.4476C174.886 -21.502 138.943 44.6153 115.168 134.637C92.5513 220.248 37.3459 264.06 -18.0155 286.306C-73.3766 308.547 -128.868 309.146 -151.848 308.2C-155.369 308.055 -158.131 307.868 -160.004 307.728C-161.877 307.584 -162.871 307.469 -162.871 307.475L-162.985 308.582Z" stroke="black" stroke-width="3"/>
<path d="M-227.186 245.196C-227.169 245.197 -223.646 245.562 -217.36 245.821C-195.416 246.724 -139.886 246.285 -84.1963 224.002C-28.501 201.729 27.3913 157.54 49.8575 71.0757C73.227 -18.8325 108.949 -84.9476 155.548 -127.883C202.147 -170.813 259.625 -190.614 326.68 -187.859C355.896 -186.656 386.926 -181.164 419.661 -171.427L419.976 -172.497C387.169 -182.255 356.048 -187.762 326.726 -188.969C259.429 -191.745 201.603 -171.84 154.792 -128.704C107.982 -85.5685 72.1832 -19.2422 48.7801 70.7944C26.3913 156.889 -29.1441 200.766 -84.6108 222.969C-140.072 245.166 -195.455 245.611 -217.315 244.711C-220.441 244.583 -222.877 244.426 -224.548 244.301C-226.201 244.176 -227.067 244.084 -227.067 244.084L-227.186 245.196Z" stroke="black" stroke-width="3"/>
<path d="M-184.211 291.768C-184.199 291.769 -181.12 292.076 -175.612 292.303C-154.845 293.152 -99.4566 292.871 -43.6444 270.637C12.162 248.409 68.4014 204.149 90.6398 117.185C113.643 27.2615 149.216 -39.0629 195.998 -82.1884C242.785 -125.308 300.778 -145.28 368.801 -142.485C398.834 -141.249 430.816 -135.565 464.636 -125.473L464.956 -126.543C431.064 -136.661 398.986 -142.354 368.847 -143.595C300.587 -146.41 242.241 -126.335 195.242 -83.0038C148.248 -39.6782 112.6 26.8461 89.5566 116.909C67.3957 203.499 11.5191 247.44 -44.0586 269.599C-99.6303 291.747 -154.889 292.039 -175.566 291.187C-178.303 291.075 -180.453 290.941 -181.893 290.837C-183.344 290.732 -184.092 290.656 -184.092 290.656L-184.21 291.762L-184.211 291.768Z" stroke="black" stroke-width="3"/>
<path d="M-244.189 218.517C-244.189 218.517 -241.542 218.773 -236.782 218.969C-217.243 219.767 -161.992 219.65 -106.08 197.46C-50.157 175.281 6.44638 130.952 28.4576 43.4762C51.0955 -46.4735 86.5242 -113.001 133.489 -156.311C180.459 -199.621 238.972 -219.763 307.953 -216.928C338.796 -215.659 371.735 -209.789 406.652 -199.33L406.973 -200.4C371.978 -210.879 338.955 -216.769 307.999 -218.044C238.776 -220.899 179.914 -200.647 132.733 -157.132C85.551 -113.617 50.0516 -46.8832 27.3742 43.2059C5.44631 130.302 -50.7998 174.313 -106.489 196.427C-162.177 218.525 -217.299 218.654 -236.737 217.853C-239.102 217.756 -240.948 217.646 -242.197 217.555C-243.435 217.47 -244.087 217.41 -244.087 217.41L-244.189 218.517Z" stroke="black" stroke-width="3"/>
</svg>
